<svg width="308" height="148" viewBox="0 0 308 148" fill="none" xmlns="http://www.w3.org/2000/svg">
<path d="M112.059 36.677V33.5076H126.991V36.677H121.425V51.6895H117.625V36.677H112.059ZM133.161 43.8059V51.6895H129.38V33.5076H133.055V40.459H133.215C133.523 39.6541 134.02 39.0237 134.706 38.568C135.393 38.1064 136.254 37.8755 137.29 37.8755C138.237 37.8755 139.062 38.0827 139.767 38.497C140.477 38.9054 141.027 39.4943 141.418 40.2637C141.814 41.0272 142.01 41.9416 142.004 43.0069V51.6895H138.222V43.6816C138.228 42.8412 138.015 42.1872 137.583 41.7196C137.157 41.2521 136.559 41.0183 135.789 41.0183C135.274 41.0183 134.819 41.1278 134.422 41.3468C134.032 41.5658 133.724 41.8854 133.499 42.3056C133.28 42.7199 133.167 43.22 133.161 43.8059ZM151.195 51.9558C149.792 51.9558 148.585 51.6717 147.572 51.1035C146.566 50.5294 145.791 49.7186 145.246 48.671C144.702 47.6175 144.43 46.3716 144.43 44.9334C144.43 43.5307 144.702 42.2997 145.246 41.2402C145.791 40.1808 146.557 39.3552 147.546 38.7633C148.54 38.1715 149.706 37.8755 151.044 37.8755C151.943 37.8755 152.781 38.0205 153.556 38.3105C154.337 38.5946 155.018 39.0237 155.598 39.5978C156.184 40.1719 156.64 40.894 156.965 41.764C157.291 42.6281 157.453 43.6402 157.453 44.8002V45.839H145.939V43.4952H153.893C153.893 42.9507 153.775 42.4683 153.538 42.0481C153.302 41.6279 152.973 41.2994 152.553 41.0627C152.139 40.82 151.656 40.6987 151.106 40.6987C150.532 40.6987 150.023 40.8319 149.579 41.0982C149.141 41.3586 148.798 41.7108 148.549 42.1547C148.3 42.5926 148.173 43.0809 148.167 43.6195V45.8478C148.167 46.5225 148.292 47.1055 148.54 47.5968C148.795 48.088 149.153 48.4668 149.614 48.7331C150.076 48.9995 150.623 49.1326 151.257 49.1326C151.677 49.1326 152.062 49.0734 152.411 48.9551C152.76 48.8367 153.059 48.6592 153.308 48.4224C153.556 48.1857 153.746 47.8957 153.876 47.5524L157.374 47.7832C157.196 48.6236 156.832 49.3575 156.282 49.9849C155.737 50.6064 155.033 51.0917 154.169 51.4409C153.31 51.7842 152.319 51.9558 151.195 51.9558ZM172.224 51.6895H165.779V33.5076H172.277C174.106 33.5076 175.68 33.8716 177 34.5996C178.32 35.3217 179.335 36.3604 180.045 37.7157C180.762 39.0711 181.12 40.6928 181.12 42.5808C181.12 44.4747 180.762 46.1023 180.045 47.4636C179.335 48.8249 178.314 49.8695 176.983 50.5975C175.657 51.3255 174.071 51.6895 172.224 51.6895ZM169.623 48.3958H172.064C173.201 48.3958 174.156 48.1945 174.932 47.7921C175.713 47.3837 176.299 46.7534 176.69 45.9011C177.086 45.0429 177.284 43.9361 177.284 42.5808C177.284 41.2373 177.086 40.1394 176.69 39.2871C176.299 38.4348 175.716 37.8075 174.941 37.405C174.165 37.0025 173.209 36.8013 172.073 36.8013H169.623V48.3958ZM190.111 51.9558C188.708 51.9558 187.501 51.6717 186.488 51.1035C185.482 50.5294 184.707 49.7186 184.162 48.671C183.618 47.6175 183.346 46.3716 183.346 44.9334C183.346 43.5307 183.618 42.2997 184.162 41.2402C184.707 40.1808 185.473 39.3552 186.462 38.7633C187.456 38.1715 188.622 37.8755 189.96 37.8755C190.859 37.8755 191.697 38.0205 192.472 38.3105C193.253 38.5946 193.934 39.0237 194.514 39.5978C195.1 40.1719 195.556 40.894 195.881 41.764C196.207 42.6281 196.37 43.6402 196.37 44.8002V45.839H184.855V43.4952H192.809C192.809 42.9507 192.691 42.4683 192.454 42.0481C192.218 41.6279 191.889 41.2994 191.469 41.0627C191.055 40.82 190.572 40.6987 190.022 40.6987C189.448 40.6987 188.939 40.8319 188.495 41.0982C188.057 41.3586 187.714 41.7108 187.465 42.1547C187.216 42.5926 187.089 43.0809 187.083 43.6195V45.8478C187.083 46.5225 187.208 47.1055 187.456 47.5968C187.711 48.088 188.069 48.4668 188.53 48.7331C188.992 48.9995 189.539 49.1326 190.173 49.1326C190.593 49.1326 190.978 49.0734 191.327 48.9551C191.676 48.8367 191.975 48.6592 192.224 48.4224C192.472 48.1857 192.662 47.8957 192.792 47.5524L196.29 47.7832C196.112 48.6236 195.748 49.3575 195.198 49.9849C194.653 50.6064 193.949 51.0917 193.085 51.4409C192.227 51.7842 191.235 51.9558 190.111 51.9558ZM210.183 41.9416L206.721 42.1547C206.662 41.8587 206.535 41.5924 206.339 41.3556C206.144 41.113 205.887 40.9206 205.567 40.7786C205.253 40.6306 204.877 40.5566 204.439 40.5566C203.854 40.5566 203.359 40.6809 202.957 40.9295C202.554 41.1722 202.353 41.4977 202.353 41.9061C202.353 42.2316 202.483 42.5068 202.744 42.7317C203.004 42.9566 203.451 43.1371 204.084 43.2733L206.552 43.7704C207.878 44.0427 208.867 44.4806 209.518 45.0843C210.169 45.688 210.494 46.4811 210.494 47.4636C210.494 48.3573 210.231 49.1415 209.704 49.8162C209.183 50.4909 208.467 51.0177 207.556 51.3965C206.65 51.7694 205.605 51.9558 204.422 51.9558C202.617 51.9558 201.178 51.58 200.107 50.8283C199.042 50.0707 198.417 49.0409 198.234 47.7388L201.954 47.5435C202.066 48.0939 202.338 48.5141 202.77 48.8042C203.202 49.0882 203.756 49.2303 204.431 49.2303C205.093 49.2303 205.626 49.103 206.029 48.8485C206.437 48.5881 206.644 48.2537 206.65 47.8453C206.644 47.5021 206.499 47.2209 206.215 47.002C205.931 46.777 205.493 46.6054 204.901 46.487L202.54 46.0165C201.208 45.7502 200.217 45.2885 199.566 44.6316C198.92 43.9746 198.598 43.1371 198.598 42.1191C198.598 41.2432 198.835 40.4886 199.308 39.8553C199.787 39.222 200.459 38.7337 201.323 38.3904C202.193 38.0472 203.211 37.8755 204.377 37.8755C206.1 37.8755 207.455 38.2395 208.443 38.9675C209.438 39.6955 210.018 40.6868 210.183 41.9416ZM212.876 51.6895V38.0531H216.658V51.6895H212.876ZM214.775 36.2953C214.213 36.2953 213.731 36.1088 213.328 35.736C212.932 35.3572 212.734 34.9044 212.734 34.3777C212.734 33.8568 212.932 33.41 213.328 33.0371C213.731 32.6583 214.213 32.4689 214.775 32.4689C215.338 32.4689 215.817 32.6583 216.214 33.0371C216.616 33.41 216.817 33.8568 216.817 34.3777C216.817 34.9044 216.616 35.3572 216.214 35.736C215.817 36.1088 215.338 36.2953 214.775 36.2953ZM225.831 57.0872C224.605 57.0872 223.555 56.9185 222.679 56.5811C221.809 56.2497 221.116 55.7969 220.602 55.2228C220.087 54.6487 219.752 54.0036 219.598 53.2875L223.096 52.8169C223.203 53.0892 223.371 53.3437 223.602 53.5804C223.833 53.8172 224.138 54.0066 224.517 54.1486C224.901 54.2966 225.369 54.3706 225.919 54.3706C226.742 54.3706 227.42 54.1693 227.952 53.7669C228.491 53.3703 228.76 52.7045 228.76 51.7694V49.2747H228.601C228.435 49.6535 228.186 50.0115 227.855 50.3489C227.523 50.6863 227.097 50.9615 226.576 51.1745C226.056 51.3876 225.434 51.4941 224.712 51.4941C223.688 51.4941 222.756 51.2574 221.915 50.7839C221.081 50.3045 220.415 49.5736 219.918 48.5911C219.427 47.6027 219.181 46.3539 219.181 44.8446C219.181 43.2999 219.433 42.0096 219.936 40.9739C220.439 39.9382 221.108 39.1628 221.942 38.6479C222.783 38.133 223.703 37.8755 224.703 37.8755C225.467 37.8755 226.106 38.0057 226.621 38.2662C227.136 38.5207 227.55 38.8403 227.864 39.225C228.183 39.6038 228.429 39.9766 228.601 40.3436H228.743V38.0531H232.498V51.8226C232.498 52.9827 232.214 53.9533 231.646 54.7346C231.077 55.5158 230.29 56.1017 229.284 56.4924C228.284 56.8889 227.133 57.0872 225.831 57.0872ZM225.911 48.6532C226.52 48.6532 227.035 48.5023 227.455 48.2005C227.881 47.8927 228.207 47.4547 228.432 46.8865C228.663 46.3124 228.778 45.6259 228.778 44.8269C228.778 44.0279 228.666 43.3354 228.441 42.7495C228.216 42.1576 227.89 41.6989 227.464 41.3734C227.038 41.0479 226.52 40.8851 225.911 40.8851C225.289 40.8851 224.765 41.0538 224.339 41.3912C223.913 41.7226 223.59 42.1842 223.371 42.7761C223.152 43.368 223.043 44.0516 223.043 44.8269C223.043 45.6141 223.152 46.2947 223.371 46.8688C223.596 47.437 223.919 47.8779 224.339 48.1916C224.765 48.4993 225.289 48.6532 225.911 48.6532ZM239.289 43.8059V51.6895H235.507V38.0531H239.112V40.459H239.272C239.574 39.6659 240.08 39.0385 240.79 38.5769C241.5 38.1093 242.361 37.8755 243.373 37.8755C244.32 37.8755 245.146 38.0827 245.85 38.497C246.554 38.9113 247.102 39.5031 247.493 40.2725C247.883 41.036 248.078 41.9475 248.078 43.0069V51.6895H244.297V43.6816C244.302 42.8471 244.089 42.1961 243.657 41.7285C243.225 41.255 242.63 41.0183 241.873 41.0183C241.364 41.0183 240.914 41.1278 240.523 41.3468C240.139 41.5658 239.837 41.8854 239.618 42.3056C239.405 42.7199 239.295 43.22 239.289 43.8059Z" fill="white"/>
<path d="M126.796 81.9406C123.799 81.9406 121.595 81.1769 120.184 79.6496C118.792 78.1223 118.096 76.1116 118.096 73.6176C118.096 71.1043 118.521 68.8229 119.372 66.7736C120.242 64.7049 121.528 63.0133 123.229 61.6986C124.93 60.3646 126.767 59.6976 128.739 59.6976C130.73 59.6976 132.287 60.1809 133.408 61.1476C134.549 62.0949 135.119 63.3806 135.119 65.0046C135.119 66.6093 134.616 67.9433 133.611 69.0066C132.625 70.0699 131.465 70.6016 130.131 70.6016C128.797 70.6016 127.763 70.3116 127.028 69.7316C126.293 69.1323 125.926 68.5039 125.926 67.8466C125.926 67.1699 126.187 66.6479 126.709 66.2806C127.25 65.8939 128.033 65.7006 129.058 65.7006C128.807 65.9519 128.681 66.2903 128.681 66.7156C128.681 67.1216 128.807 67.4793 129.058 67.7886C129.309 68.0979 129.696 68.2526 130.218 68.2526C130.74 68.2526 131.262 67.9819 131.784 67.4406C132.306 66.8799 132.567 66.1453 132.567 65.2366C132.567 64.3279 132.287 63.6029 131.726 63.0616C131.185 62.5203 130.411 62.2496 129.406 62.2496C128.091 62.2496 126.893 62.7813 125.81 63.8446C124.747 64.9079 123.935 66.2613 123.374 67.9046C122.813 69.5479 122.533 71.2783 122.533 73.0956C122.533 74.6616 122.871 76.0439 123.548 77.2426C123.896 77.8613 124.408 78.3543 125.085 78.7216C125.781 79.0889 126.593 79.2726 127.521 79.2726C129.106 79.2726 130.634 78.7699 132.103 77.7646C133.572 76.7399 134.81 75.4253 135.815 73.8206L136.801 75.5896C135.66 77.4456 134.23 78.9729 132.509 80.1716C130.788 81.3509 128.884 81.9406 126.796 81.9406ZM142.462 67.8176C144.24 67.8176 145.719 68.3879 146.899 69.5286C148.097 70.6693 148.697 72.0613 148.697 73.7046C148.697 76.1986 147.962 78.1996 146.493 79.7076C145.043 81.1963 143.283 81.9406 141.215 81.9406C139.146 81.9406 137.503 81.3509 136.285 80.1716C135.086 78.9923 134.487 77.5326 134.487 75.7926C134.487 73.3566 135.231 71.4233 136.72 69.9926C138.228 68.5426 140.142 67.8176 142.462 67.8176ZM141.882 70.1666C140.973 70.1666 140.209 70.6886 139.591 71.7326C138.972 72.7766 138.634 74.0913 138.576 75.6766C138.576 76.7979 138.798 77.7259 139.243 78.4606C139.707 79.1953 140.403 79.5626 141.331 79.5626C142.259 79.5626 143.032 79.0503 143.651 78.0256C144.289 77.0009 144.608 75.8313 144.608 74.5166C144.608 73.2019 144.385 72.1579 143.941 71.3846C143.496 70.5726 142.81 70.1666 141.882 70.1666ZM158.108 81.7666L159.21 72.1386C159.21 71.5973 159.075 71.1526 158.804 70.8046C158.553 70.4373 158.098 70.2536 157.441 70.2536C156.784 70.2536 156.242 70.5726 155.817 71.2106C155.392 71.8293 155.121 72.4866 155.005 73.1826C154.328 77.9966 153.951 80.8579 153.874 81.7666H149.988L151.583 68.1366C152.395 67.9239 153.014 67.8176 153.439 67.8176C154.657 67.8176 155.324 68.2236 155.44 69.0356C156.387 68.2236 157.422 67.8176 158.543 67.8176C160.786 67.8176 162.216 68.4846 162.835 69.8186C163.782 68.4653 165.136 67.7886 166.895 67.7886C168.19 67.7886 169.215 68.1269 169.969 68.8036C170.723 69.4609 171.1 70.2923 171.1 71.2976C171.1 71.5876 171.042 72.0999 170.926 72.8346C170.481 75.7346 170.259 77.4359 170.259 77.9386C170.259 78.8473 170.559 79.3016 171.158 79.3016C171.661 79.3016 172.192 78.9729 172.753 78.3156C173.333 77.6389 173.797 76.6046 174.145 75.2126C174.802 75.9086 175.199 76.4596 175.334 76.8656C174.329 80.2296 172.55 81.9116 169.998 81.9116C168.799 81.9116 167.91 81.5443 167.33 80.8096C166.75 80.0749 166.46 79.3016 166.46 78.4896L167.156 72.0806C167.156 71.5586 167.021 71.1236 166.75 70.7756C166.479 70.4276 166.044 70.2536 165.445 70.2536C164.865 70.2536 164.353 70.4759 163.908 70.9206C163.463 71.3653 163.154 71.9356 162.98 72.6316C162.4 77.5423 162.023 80.5873 161.849 81.7666H158.108ZM176.428 67.7886C177.684 67.7886 178.419 68.1076 178.632 68.7456C179.54 68.1076 180.691 67.7886 182.083 67.7886C183.475 67.7886 184.673 68.3589 185.679 69.4996C186.684 70.6403 187.187 71.9743 187.187 73.5016C187.187 73.7143 187.177 73.9366 187.158 74.1686C186.945 76.7013 186.094 78.6346 184.606 79.9686C183.117 81.2833 181.174 81.9406 178.777 81.9406C178.235 81.9406 177.646 81.8729 177.008 81.7376L176.08 89.7126H172.281C173.518 79.0599 174.349 71.8293 174.775 68.0206C175.181 67.8659 175.732 67.7886 176.428 67.7886ZM183.098 73.7046C183.098 72.8539 182.904 72.0999 182.518 71.4426C182.131 70.7853 181.532 70.4566 180.72 70.4566C179.618 70.4566 178.777 71.1719 178.197 72.6026C177.81 75.4639 177.588 77.1266 177.53 77.5906C177.51 78.1706 177.694 78.6056 178.081 78.8956C178.467 79.1856 178.941 79.3306 179.502 79.3306C180.488 79.3306 181.3 78.8859 181.938 77.9966C182.711 76.8946 183.098 75.4639 183.098 73.7046ZM201.492 81.9116C199.714 81.9116 198.534 81.2929 197.954 80.0556C196.949 81.3123 195.654 81.9406 194.068 81.9406C192.502 81.9406 191.178 81.4089 190.095 80.3456C189.032 79.2823 188.5 77.8806 188.5 76.1406C188.5 73.6079 189.245 71.5876 190.733 70.0796C192.222 68.5716 194.107 67.8176 196.388 67.8176C196.446 67.8176 196.504 67.8176 196.562 67.8176C197.529 67.8176 198.418 67.9819 199.23 68.3106C199.752 67.9819 200.381 67.8176 201.115 67.8176C201.869 67.8176 202.411 67.9143 202.739 68.1076C202.565 69.5383 202.382 70.9496 202.188 72.3416C201.995 73.7143 201.86 74.6906 201.782 75.2706C201.608 76.5853 201.521 77.5326 201.521 78.1126C201.521 78.8859 201.831 79.2726 202.449 79.2726C202.933 79.2726 203.445 78.9536 203.986 78.3156C204.528 77.6583 205.001 76.6336 205.407 75.2416C205.968 75.7443 206.355 76.3049 206.567 76.9236C206.007 78.7603 205.253 80.0556 204.305 80.8096C203.358 81.5443 202.42 81.9116 201.492 81.9116ZM196.823 70.0796C195.586 70.0796 194.6 70.5533 193.865 71.5006C193.15 72.4286 192.725 73.8206 192.589 75.6766C192.57 75.8506 192.56 76.0149 192.56 76.1696C192.56 77.1169 192.783 77.8709 193.227 78.4316C193.691 78.9923 194.281 79.2726 194.996 79.2726C196.214 79.2726 197.133 78.4123 197.751 76.6916L198.447 70.4276C197.887 70.1956 197.345 70.0796 196.823 70.0796ZM212.74 78.5186L213.436 72.0516C213.436 71.5296 213.301 71.0946 213.03 70.7466C212.759 70.3986 212.305 70.2246 211.667 70.2246C211.048 70.2246 210.517 70.5049 210.072 71.0656C209.647 71.6069 209.376 72.2933 209.26 73.1246C208.564 78.4219 208.197 81.3026 208.158 81.7666H204.243L205.838 68.1076C206.65 67.8949 207.269 67.7886 207.694 67.7886C208.989 67.7886 209.666 68.2623 209.724 69.2096C210.671 68.2816 211.802 67.8176 213.117 67.8176C214.451 67.8176 215.495 68.1463 216.249 68.8036C217.003 69.4609 217.38 70.2923 217.38 71.2976C217.38 71.5683 217.322 72.0806 217.206 72.8346C216.761 75.7733 216.539 77.4843 216.539 77.9676C216.539 78.8569 216.839 79.3016 217.438 79.3016C218.753 79.3016 219.748 77.9289 220.425 75.1836C221.082 75.8796 221.479 76.4306 221.614 76.8366C220.589 80.2393 218.811 81.9406 216.278 81.9406C215.079 81.9406 214.19 81.5733 213.61 80.8386C213.03 80.1039 212.74 79.3306 212.74 78.5186ZM224.501 90.3796C223.399 90.3796 222.452 90.0413 221.659 89.3646C220.866 88.7073 220.47 87.7406 220.47 86.4646C220.47 84.8986 221.263 83.3713 222.848 81.8826C221.727 81.7859 220.828 81.4186 220.151 80.7806C219.474 80.1426 219.136 79.2436 219.136 78.0836C219.136 77.5423 219.204 76.7303 219.339 75.6476C219.474 74.5649 219.619 73.3953 219.774 72.1386C219.929 70.8819 220.093 69.5479 220.267 68.1366C220.866 67.9239 221.417 67.8176 221.92 67.8176C222.423 67.8176 222.8 67.8369 223.051 67.8756C223.302 67.9143 223.544 68.0593 223.776 68.3106C224.008 68.5619 224.124 68.9196 224.124 69.3836L223.167 76.7786C223.128 77.0879 223.109 77.3006 223.109 77.4166C223.109 78.5573 223.631 79.1276 224.675 79.1276C225.622 79.1276 226.396 78.6829 226.995 77.7936C227.053 77.3489 227.198 76.0729 227.43 73.9656C227.662 71.8389 227.855 70.1859 228.01 69.0066C228.184 68.6393 228.542 68.3493 229.083 68.1366C229.644 67.9239 230.098 67.8176 230.446 67.8176C231.065 67.8176 231.625 67.8949 232.128 68.0496L230.765 78.7506C233.027 79.1566 234.38 80.7129 234.825 83.4196C234.748 83.7869 234.38 84.3669 233.723 85.1596C233.336 82.7429 232.273 81.2736 230.533 80.7516L230.069 84.3766C229.856 86.1166 229.305 87.5473 228.416 88.6686C227.527 89.8093 226.222 90.3796 224.501 90.3796ZM222.732 85.9136C222.732 86.5516 222.887 87.0253 223.196 87.3346C223.505 87.6439 223.911 87.7986 224.414 87.7986C224.936 87.7986 225.332 87.5859 225.603 87.1606C225.874 86.7353 226.086 85.8846 226.241 84.6086L226.618 81.4186C224.085 82.7333 222.79 84.2316 222.732 85.9136Z" fill="white"/>
<path d="M59.2713 22.4361C59.0733 22.5039 58.3804 22.5911 57.737 22.6201C57.0936 22.6589 56.4008 22.7461 56.1929 22.8236C55.9949 22.9011 55.599 22.9592 55.3218 22.9592C55.0546 22.9592 54.6685 23.027 54.4607 23.1142C54.2627 23.1917 53.8272 23.2983 53.5005 23.337C53.1739 23.3855 52.778 23.4726 52.6097 23.5211C51.9861 23.7439 51.3031 23.9473 50.8973 24.0248C50.6597 24.0733 50.3727 24.1798 50.2539 24.267C50.1351 24.3445 49.9272 24.4123 49.7887 24.4123C49.6501 24.4123 49.4323 24.4801 49.3036 24.577C49.175 24.6642 48.9077 24.7708 48.7097 24.8095C48.195 24.9161 47.3636 25.2164 46.6212 25.5651C46.2649 25.7298 45.9283 25.8655 45.8689 25.8655C45.8095 25.8655 45.7006 25.9333 45.6314 26.0108C45.5621 26.0883 45.4334 26.1561 45.3344 26.1561C45.176 26.1561 44.8395 26.3305 43.8695 26.902C43.6616 27.0183 43.4339 27.1442 43.3547 27.183C43.2756 27.2217 42.9588 27.4155 42.6619 27.6092C42.0284 28.0258 41.3949 28.423 40.0883 29.2076C38.4749 30.1861 37.584 30.9223 35.0401 33.4217C33.0902 35.3205 32.2191 36.3183 30.7443 38.3526C26.0326 44.8239 24.4885 48.5148 23.3403 56.042C23.1621 57.2142 23.1324 57.873 23.1324 60.9826C23.1225 64.6445 23.2215 65.9911 23.6175 67.8123C23.6867 68.1611 23.7956 68.8005 23.8451 69.2461C23.9045 69.682 23.9837 70.118 24.0332 70.2148C24.0827 70.302 24.152 70.6314 24.1916 70.9414C24.2213 71.2514 24.3202 71.6389 24.3994 71.7842C24.4786 71.9392 24.5479 72.1814 24.5479 72.317C24.5479 72.4623 24.6073 72.7142 24.6865 72.8789C24.7657 73.0533 24.8844 73.373 24.9438 73.5958C25.0032 73.8186 25.0923 74.0317 25.1418 74.0608C25.2012 74.0898 25.2408 74.2255 25.2408 74.3611C25.2408 74.6033 25.508 75.3395 25.7951 75.882C25.8743 76.037 25.9337 76.2017 25.9337 76.2501C25.9337 76.2986 26.1118 76.6958 26.3197 77.1414C26.5276 77.5773 26.8047 78.1489 26.9235 78.4201C27.0423 78.6817 27.1809 78.9723 27.2303 79.0498C27.2798 79.1273 27.3491 79.263 27.3788 79.3405C27.4877 79.6214 27.6164 79.8733 27.7946 80.1251C27.8836 80.2705 28.1113 80.6192 28.2895 80.9001C28.4676 81.1908 28.8141 81.7236 29.0516 82.1014C29.2991 82.4695 29.5268 82.8473 29.5565 82.9248C29.596 83.0023 29.7049 83.1573 29.794 83.2639C29.893 83.3705 30.091 83.632 30.2394 83.8451C30.7146 84.5523 33.2287 87.323 33.9117 87.8945C34.278 88.2142 35.2084 89.0473 35.9706 89.7545C37.4256 91.1011 38.8906 92.283 40.217 93.1645C40.6426 93.4455 41.0088 93.678 41.0286 93.678C41.0484 93.678 41.2761 93.8233 41.5334 93.988C42.0482 94.3367 42.9687 94.8695 43.3547 95.0439C43.4933 95.1117 44.2852 95.4798 45.1166 95.877C45.9481 96.2645 46.6806 96.5842 46.7301 96.5842C46.7895 96.5842 46.9577 96.6423 47.0963 96.7198C47.2448 96.7973 47.611 96.9523 47.908 97.0589C48.2049 97.1655 48.8582 97.398 49.3432 97.582C49.8382 97.7661 50.5706 98.0083 50.9765 98.1245C51.3823 98.2408 51.9168 98.3958 52.1643 98.4733C52.4117 98.5508 52.8374 98.6573 53.1046 98.7058C53.3818 98.7542 53.7975 98.8511 54.0449 98.9092C55.3317 99.2289 55.4901 99.2483 57.8558 99.5389C61.0431 99.9167 65.923 99.9264 68.2986 99.5486C68.7638 99.4711 69.5062 99.3839 69.9516 99.3548C70.4069 99.3161 70.8919 99.2483 71.0404 99.1901C71.1988 99.1223 71.6046 99.0448 71.9609 99.0061C73.2279 98.8705 77.0883 97.7564 78.5433 97.117C78.7116 97.0395 79.1174 96.8651 79.4639 96.7295C80.0479 96.497 80.8398 96.1483 82.1562 95.538C82.7402 95.2667 85.0466 93.9783 85.1257 93.8717C85.1554 93.833 85.2841 93.7458 85.4227 93.678C86.175 93.3001 88.3724 91.7017 89.6988 90.5683C90.649 89.7545 93.9353 86.5286 94.5193 85.8311C94.8162 85.4823 95.2418 84.9786 95.4794 84.717C95.7071 84.4458 96.0634 84.0098 96.2515 83.7483C96.7068 83.1283 97.3205 82.2564 97.4492 82.0626C97.5086 81.9755 97.8451 81.4717 98.2014 80.9389C98.5578 80.4061 99.0527 79.5536 99.3101 79.0498C99.7357 78.2167 99.9436 77.8292 100.191 77.403C100.231 77.3255 100.32 77.1511 100.369 77.0155C100.429 76.8798 100.537 76.657 100.617 76.5117C100.696 76.3761 100.765 76.2017 100.765 76.1242C100.775 76.0564 100.854 75.8239 100.963 75.6108C101.072 75.3976 101.151 75.1748 101.161 75.1264C101.161 75.0683 101.25 74.8551 101.359 74.642C101.468 74.4289 101.557 74.1673 101.557 74.0608C101.557 73.9445 101.597 73.8186 101.646 73.7605C101.735 73.6733 101.943 73.0823 102.577 71.1061C102.943 69.9533 103.081 69.3817 103.25 68.2967C103.309 67.948 103.408 67.357 103.487 66.9889C103.675 66.0686 103.883 62.6198 103.873 60.5467C103.873 58.677 103.616 55.0151 103.467 54.6373C103.408 54.5017 103.339 54.0658 103.299 53.6686C103.259 53.2714 103.161 52.7967 103.081 52.6126C103.002 52.4383 102.943 52.1961 102.943 52.0895C102.943 51.983 102.854 51.6051 102.735 51.2564C102.626 50.9076 102.458 50.3748 102.379 50.0842C102.171 49.377 101.814 48.3501 101.507 47.517C101.359 47.1392 101.211 46.7033 101.171 46.5483C101.121 46.3836 101.013 46.122 100.923 45.967C100.834 45.8023 100.765 45.628 100.765 45.5601C100.765 45.4536 100.508 44.882 100.27 44.4655C100.231 44.388 99.9732 43.9036 99.7159 43.3998C99.4486 42.8961 98.9537 42.0533 98.6073 41.5205C98.2608 40.9973 97.9342 40.4742 97.8847 40.358C97.8253 40.2514 97.6768 39.9801 97.5482 39.767C97.4096 39.5539 97.2215 39.2051 97.1126 38.992C97.0037 38.7789 96.8256 38.498 96.7167 38.3623C96.6078 38.2267 96.3703 37.9264 96.1822 37.6842C95.7961 37.1708 95.4002 37.0158 94.836 37.1901C94.5292 37.2773 93.965 37.7811 92.114 39.6023C90.8272 40.8617 89.6295 42.1017 89.4414 42.3633C89.2533 42.6151 88.9366 42.9542 88.7287 43.1189C88.0161 43.6614 87.4518 44.4945 87.5706 44.8239C87.6597 45.0758 88.4912 46.4126 88.7089 46.6548C88.8079 46.7614 88.8871 46.8873 88.8871 46.9358C88.8871 46.9745 89.0356 47.2361 89.2138 47.5073C89.3919 47.7786 89.7384 48.4373 89.966 48.9701C90.2036 49.503 90.55 50.2295 90.7282 50.5976C90.9163 50.9561 91.0647 51.3242 91.0647 51.4211C91.0647 51.518 91.134 51.6826 91.2132 51.7892C91.2924 51.9055 91.4013 52.167 91.4508 52.3705C91.5003 52.5836 91.5894 52.8742 91.6487 53.0389C91.9556 53.9205 92.0843 54.3661 92.1734 54.9764C92.2327 55.3445 92.3416 55.7417 92.4109 55.8483C92.4901 55.9548 92.5495 56.2648 92.5495 56.5361C92.5495 56.8073 92.6287 57.2239 92.7178 57.4564C92.8563 57.8148 92.8959 58.3476 92.9256 60.9051C92.9553 63.6661 92.9454 63.9955 92.7673 64.7317C92.6584 65.1773 92.5396 65.778 92.5198 66.088C92.4703 66.6014 92.401 66.863 91.9358 68.442C91.2924 70.5926 90.2036 73.0533 88.7881 75.5139C87.7587 77.3158 85.7889 79.5633 84.0864 80.8905C83.7796 81.1326 83.3143 81.5008 83.0669 81.7139C82.176 82.4695 80.7606 83.5061 80.6121 83.5061C80.5824 83.5061 80.325 83.6514 80.0479 83.8258C79.0383 84.4458 78.385 84.7751 77.2566 85.2401C76.7121 85.4726 76.1578 85.7051 76.0193 85.7633C75.0789 86.1508 74.0792 86.4511 72.9706 86.6642C72.5746 86.732 72.1688 86.8386 72.0698 86.887C71.9708 86.9451 71.5056 87.0323 71.0503 87.0808C70.595 87.1292 70.11 87.197 69.9714 87.2358C69.6051 87.323 69.3973 87.0323 69.2686 86.2573C69.1597 85.5598 69.1993 80.9389 69.3775 72.9467C69.5556 65.4001 69.4864 49.968 69.229 38.1783C69.1993 36.8317 69.1993 35.582 69.229 35.4076C69.3181 34.9814 69.6348 34.8555 70.4564 34.933C70.8226 34.962 71.3176 35.0492 71.565 35.117C71.8125 35.1945 72.2579 35.2817 72.5548 35.3108C72.8518 35.3495 73.1883 35.427 73.2972 35.4851C73.4061 35.5433 73.6536 35.6208 73.8416 35.6595C74.2574 35.7467 75.0195 36.0083 75.5837 36.2505C75.8015 36.3473 76.0787 36.4248 76.1875 36.4248C76.2964 36.4248 76.4449 36.4926 76.5142 36.5701C76.5835 36.6476 76.7121 36.7155 76.8111 36.7155C77.2269 36.7155 80.325 38.3817 80.4537 38.6723C80.5032 38.7692 82.1463 39.6798 82.4235 39.7573C82.5423 39.7961 82.7501 39.7767 82.8689 39.7089C82.9976 39.6508 83.7697 38.9533 84.5813 38.1783C85.4029 37.3936 86.3135 36.5605 86.6105 36.3183C86.9074 36.0858 87.2935 35.7564 87.4617 35.6014C89.966 33.1989 90.1739 32.9858 90.2333 32.6855C90.263 32.5111 90.263 32.2786 90.2234 32.172C90.1343 31.9008 89.1346 30.932 88.2041 30.2248C87.7884 29.9051 87.3133 29.5467 87.145 29.4111C86.9866 29.2755 86.561 29.0236 86.2047 28.8492C85.8582 28.6748 85.4326 28.4326 85.2742 28.3261C85.0169 28.1517 84.3042 27.7545 83.4232 27.3089C83.2945 27.2411 83.1263 27.1539 83.0471 27.1151C81.3743 26.2239 80.4141 25.7686 80.236 25.7686C80.1667 25.7686 80.0479 25.7008 79.9786 25.6233C79.9093 25.5458 79.7707 25.478 79.6619 25.478C79.5629 25.478 79.3352 25.4101 79.157 25.3133C78.9789 25.2261 78.7116 25.1195 78.5433 25.0808C78.0682 24.9645 77.3753 24.7126 77.0883 24.5576C76.9497 24.4801 76.7517 24.4123 76.6429 24.4123C76.5439 24.4123 76.336 24.3445 76.1776 24.267C76.0193 24.1895 75.7124 24.0926 75.4848 24.0636C75.267 24.0248 74.97 23.9473 74.8315 23.8795C74.6929 23.8117 74.386 23.7245 74.1386 23.6858C73.8911 23.647 73.4952 23.5598 73.2477 23.492C72.7726 23.3467 72.0995 23.2111 71.1196 23.0367C70.7929 22.9786 70.3079 22.8817 70.0308 22.8042C69.7635 22.7364 69.0508 22.6589 68.447 22.6201C67.8531 22.5911 67.1405 22.5039 66.8732 22.4264C66.2001 22.223 59.8355 22.2326 59.2713 22.4361ZM57.1926 34.9911C57.3609 35.1558 57.3609 86.8095 57.1926 86.9742C56.8165 87.3423 53.2333 86.8095 51.7188 86.1605C51.5605 86.0926 51.1348 85.9183 50.7785 85.7826C49.8975 85.4339 47.9971 84.562 47.4626 84.252C46.7103 83.8161 44.9781 82.6439 44.4436 82.1983C44.0872 81.9076 43.4042 81.3458 42.9093 80.9486C41.8898 80.1348 39.9794 78.2361 39.5439 77.5967C39.3855 77.3545 39.0094 76.8411 38.7223 76.4439C38.0888 75.5914 36.8614 73.557 36.7624 73.1986C36.7328 73.063 36.6437 72.908 36.5645 72.8401C36.4853 72.782 36.4259 72.6367 36.4259 72.5205C36.4259 72.4042 36.3665 72.2298 36.2972 72.1233C36.0201 71.7067 35.2183 69.7595 34.9807 68.9264C34.9016 68.6551 34.8026 68.3548 34.7531 68.2483C34.6937 68.1417 34.6145 67.8608 34.565 67.6186C34.5056 67.3764 34.4165 67.047 34.367 66.892C34.0998 66.1267 33.9216 64.9739 33.7929 63.0655C33.5653 59.8589 33.8028 56.3908 34.3967 54.2983C34.466 54.027 34.5551 53.6589 34.5947 53.4748C34.6343 53.2908 34.7729 52.8258 34.9115 52.4576C35.05 52.0798 35.2282 51.6148 35.2975 51.4114C35.3767 51.2176 35.4757 50.9755 35.5252 50.8786C35.5845 50.7914 35.7132 50.5201 35.8221 50.278C36.8713 47.9626 37.099 47.5364 37.8711 46.3933C38.6728 45.2017 39.4845 44.262 41.2167 42.528C42.652 41.0942 44.0872 39.8348 45.0177 39.2051C45.6907 38.7401 46.4331 38.2461 46.6707 38.1008C47.0072 37.8973 49.4917 36.7155 49.5907 36.7155C49.6303 36.7155 49.7986 36.6476 49.9569 36.5798C50.2539 36.4248 51.0754 36.1536 51.4714 36.0664C51.61 36.047 51.9465 35.9405 52.2138 35.8436C53.1442 35.5045 54.0449 35.2623 54.3518 35.2623C54.5201 35.2623 54.7477 35.2139 54.8566 35.1558C55.2624 34.9426 57.0145 34.8167 57.1926 34.9911Z" fill="white"/>
<path d="M26.3395 112.455V127H23.2642V112.455H26.3395ZM31.8384 120.693V127H28.8129V116.091H31.6964V118.016H31.8242C32.0657 117.381 32.4705 116.879 33.0387 116.51C33.6069 116.136 34.2958 115.949 35.1055 115.949C35.863 115.949 36.5236 116.115 37.087 116.446C37.6505 116.777 38.0884 117.251 38.4009 117.866C38.7134 118.477 38.8697 119.206 38.8697 120.054V127H35.8441V120.594C35.8488 119.926 35.6784 119.405 35.3327 119.031C34.9871 118.652 34.5112 118.463 33.9052 118.463C33.498 118.463 33.1381 118.551 32.8256 118.726C32.5179 118.901 32.2764 119.157 32.1012 119.493C31.9308 119.824 31.8432 120.224 31.8384 120.693ZM44.2798 120.693V127H41.2543V116.091H44.1378V118.016H44.2656C44.5071 117.381 44.9119 116.879 45.4801 116.51C46.0483 116.136 46.7372 115.949 47.5469 115.949C48.3045 115.949 48.965 116.115 49.5284 116.446C50.0919 116.777 50.5298 117.251 50.8423 117.866C51.1548 118.477 51.3111 119.206 51.3111 120.054V127H48.2855V120.594C48.2902 119.926 48.1198 119.405 47.7741 119.031C47.4285 118.652 46.9527 118.463 46.3466 118.463C45.9394 118.463 45.5795 118.551 45.267 118.726C44.9593 118.901 44.7178 119.157 44.5426 119.493C44.3722 119.824 44.2846 120.224 44.2798 120.693ZM58.6246 127.213C57.5214 127.213 56.5674 126.979 55.7624 126.51C54.9622 126.036 54.3443 125.378 53.9087 124.536C53.4731 123.688 53.2553 122.705 53.2553 121.588C53.2553 120.461 53.4731 119.476 53.9087 118.634C54.3443 117.786 54.9622 117.128 55.7624 116.659C56.5674 116.186 57.5214 115.949 58.6246 115.949C59.7279 115.949 60.6796 116.186 61.4798 116.659C62.2847 117.128 62.9049 117.786 63.3406 118.634C63.7762 119.476 63.994 120.461 63.994 121.588C63.994 122.705 63.7762 123.688 63.3406 124.536C62.9049 125.378 62.2847 126.036 61.4798 126.51C60.6796 126.979 59.7279 127.213 58.6246 127.213ZM58.6388 124.869C59.1407 124.869 59.5598 124.727 59.896 124.443C60.2321 124.154 60.4854 123.761 60.6559 123.264C60.8311 122.767 60.9187 122.201 60.9187 121.567C60.9187 120.932 60.8311 120.366 60.6559 119.869C60.4854 119.372 60.2321 118.979 59.896 118.69C59.5598 118.402 59.1407 118.257 58.6388 118.257C58.1322 118.257 57.7061 118.402 57.3604 118.69C57.0195 118.979 56.7615 119.372 56.5863 119.869C56.4158 120.366 56.3306 120.932 56.3306 121.567C56.3306 122.201 56.4158 122.767 56.5863 123.264C56.7615 123.761 57.0195 124.154 57.3604 124.443C57.7061 124.727 58.1322 124.869 58.6388 124.869ZM75.7802 116.091L71.9663 127H68.5572L64.7433 116.091H67.9393L70.2049 123.896H70.3185L72.5771 116.091H75.7802ZM80.1463 127.206C79.4503 127.206 78.83 127.085 78.2855 126.844C77.741 126.598 77.3101 126.235 76.9929 125.757C76.6804 125.274 76.5241 124.673 76.5241 123.953C76.5241 123.347 76.6354 122.838 76.858 122.426C77.0805 122.014 77.3835 121.683 77.767 121.432C78.1506 121.181 78.5862 120.991 79.0739 120.864C79.5663 120.736 80.0824 120.646 80.6222 120.594C81.2566 120.527 81.768 120.466 82.1562 120.409C82.5445 120.348 82.8262 120.258 83.0014 120.139C83.1766 120.021 83.2642 119.846 83.2642 119.614V119.571C83.2642 119.121 83.1222 118.773 82.8381 118.527C82.5587 118.281 82.161 118.158 81.6449 118.158C81.1004 118.158 80.6671 118.278 80.3452 118.52C80.0232 118.757 79.8101 119.055 79.706 119.415L76.9077 119.188C77.0497 118.525 77.3291 117.952 77.7457 117.469C78.1624 116.981 78.6998 116.607 79.358 116.347C80.0208 116.081 80.7879 115.949 81.6591 115.949C82.2652 115.949 82.8452 116.02 83.3991 116.162C83.9579 116.304 84.4527 116.524 84.8835 116.822C85.3191 117.121 85.6624 117.504 85.9134 117.973C86.1643 118.437 86.2898 118.993 86.2898 119.642V127H83.4205V125.487H83.3352C83.16 125.828 82.9257 126.129 82.6321 126.389C82.3385 126.645 81.9858 126.846 81.5739 126.993C81.1619 127.135 80.6861 127.206 80.1463 127.206ZM81.0128 125.118C81.4579 125.118 81.8509 125.03 82.1918 124.855C82.5327 124.675 82.8002 124.434 82.9943 124.131C83.1884 123.828 83.2855 123.484 83.2855 123.101V121.943C83.1908 122.005 83.0606 122.062 82.8949 122.114C82.7339 122.161 82.5516 122.206 82.348 122.249C82.1444 122.286 81.9408 122.322 81.7372 122.355C81.5336 122.384 81.349 122.41 81.1832 122.433C80.8281 122.485 80.518 122.568 80.2528 122.682C79.9877 122.795 79.7817 122.949 79.6349 123.143C79.4882 123.333 79.4148 123.57 79.4148 123.854C79.4148 124.266 79.5639 124.58 79.8622 124.798C80.1652 125.011 80.5488 125.118 81.0128 125.118ZM94.4396 116.091V118.364H87.87V116.091H94.4396ZM89.3615 113.477H92.3871V123.648C92.3871 123.927 92.4297 124.145 92.5149 124.301C92.6001 124.453 92.7185 124.559 92.87 124.621C93.0263 124.682 93.2062 124.713 93.4098 124.713C93.5518 124.713 93.6939 124.701 93.8359 124.678C93.978 124.649 94.0869 124.628 94.1626 124.614L94.6385 126.865C94.487 126.912 94.2739 126.967 93.9993 127.028C93.7247 127.095 93.3909 127.135 92.9979 127.149C92.2687 127.178 91.6295 127.08 91.0803 126.858C90.5357 126.635 90.112 126.29 89.8089 125.821C89.5059 125.352 89.3568 124.76 89.3615 124.045V113.477ZM96.4105 127V116.091H99.4361V127H96.4105ZM97.9304 114.685C97.4806 114.685 97.0947 114.536 96.7727 114.237C96.4555 113.934 96.2969 113.572 96.2969 113.151C96.2969 112.734 96.4555 112.376 96.7727 112.078C97.0947 111.775 97.4806 111.624 97.9304 111.624C98.3802 111.624 98.7637 111.775 99.081 112.078C99.4029 112.376 99.5639 112.734 99.5639 113.151C99.5639 113.572 99.4029 113.934 99.081 114.237C98.7637 114.536 98.3802 114.685 97.9304 114.685ZM106.789 127.213C105.685 127.213 104.731 126.979 103.926 126.51C103.126 126.036 102.508 125.378 102.073 124.536C101.637 123.688 101.419 122.705 101.419 121.588C101.419 120.461 101.637 119.476 102.073 118.634C102.508 117.786 103.126 117.128 103.926 116.659C104.731 116.186 105.685 115.949 106.789 115.949C107.892 115.949 108.844 116.186 109.644 116.659C110.449 117.128 111.069 117.786 111.505 118.634C111.94 119.476 112.158 120.461 112.158 121.588C112.158 122.705 111.94 123.688 111.505 124.536C111.069 125.378 110.449 126.036 109.644 126.51C108.844 126.979 107.892 127.213 106.789 127.213ZM106.803 124.869C107.305 124.869 107.724 124.727 108.06 124.443C108.396 124.154 108.65 123.761 108.82 123.264C108.995 122.767 109.083 122.201 109.083 121.567C109.083 120.932 108.995 120.366 108.82 119.869C108.65 119.372 108.396 118.979 108.06 118.69C107.724 118.402 107.305 118.257 106.803 118.257C106.296 118.257 105.87 118.402 105.525 118.69C105.184 118.979 104.926 119.372 104.75 119.869C104.58 120.366 104.495 120.932 104.495 121.567C104.495 122.201 104.58 122.767 104.75 123.264C104.926 123.761 105.184 124.154 105.525 124.443C105.87 124.727 106.296 124.869 106.803 124.869ZM117.151 120.693V127H114.125V116.091H117.009V118.016H117.137C117.378 117.381 117.783 116.879 118.351 116.51C118.919 116.136 119.608 115.949 120.418 115.949C121.176 115.949 121.836 116.115 122.4 116.446C122.963 116.777 123.401 117.251 123.713 117.866C124.026 118.477 124.182 119.206 124.182 120.054V127H121.157V120.594C121.161 119.926 120.991 119.405 120.645 119.031C120.3 118.652 119.824 118.463 119.218 118.463C118.81 118.463 118.451 118.551 118.138 118.726C117.83 118.901 117.589 119.157 117.414 119.493C117.243 119.824 117.156 120.224 117.151 120.693ZM131.196 127V116.091H134.221V127H131.196ZM132.716 114.685C132.266 114.685 131.88 114.536 131.558 114.237C131.241 113.934 131.082 113.572 131.082 113.151C131.082 112.734 131.241 112.376 131.558 112.078C131.88 111.775 132.266 111.624 132.716 111.624C133.165 111.624 133.549 111.775 133.866 112.078C134.188 112.376 134.349 112.734 134.349 113.151C134.349 113.572 134.188 113.934 133.866 114.237C133.549 114.536 133.165 114.685 132.716 114.685ZM139.67 120.693V127H136.645V116.091H139.528V118.016H139.656C139.898 117.381 140.303 116.879 140.871 116.51C141.439 116.136 142.128 115.949 142.938 115.949C143.695 115.949 144.356 116.115 144.919 116.446C145.482 116.777 145.92 117.251 146.233 117.866C146.545 118.477 146.702 119.206 146.702 120.054V127H143.676V120.594C143.681 119.926 143.51 119.405 143.165 119.031C142.819 118.652 142.343 118.463 141.737 118.463C141.33 118.463 140.97 118.551 140.658 118.726C140.35 118.901 140.108 119.157 139.933 119.493C139.763 119.824 139.675 120.224 139.67 120.693ZM158.687 127.213C157.565 127.213 156.599 126.986 155.789 126.531C154.984 126.072 154.364 125.423 153.928 124.585C153.493 123.742 153.275 122.746 153.275 121.595C153.275 120.473 153.493 119.488 153.928 118.641C154.364 117.793 154.977 117.133 155.768 116.659C156.563 116.186 157.496 115.949 158.566 115.949C159.286 115.949 159.956 116.065 160.576 116.297C161.201 116.524 161.746 116.867 162.21 117.327C162.678 117.786 163.043 118.364 163.303 119.06C163.564 119.751 163.694 120.561 163.694 121.489V122.32H154.482V120.445H160.846C160.846 120.009 160.751 119.623 160.562 119.287C160.372 118.951 160.11 118.688 159.773 118.499C159.442 118.304 159.056 118.207 158.616 118.207C158.156 118.207 157.749 118.314 157.394 118.527C157.044 118.735 156.769 119.017 156.57 119.372C156.371 119.723 156.27 120.113 156.265 120.544V122.327C156.265 122.866 156.364 123.333 156.563 123.726C156.767 124.119 157.053 124.422 157.423 124.635C157.792 124.848 158.23 124.955 158.737 124.955C159.073 124.955 159.38 124.907 159.66 124.812C159.939 124.718 160.178 124.576 160.377 124.386C160.576 124.197 160.728 123.965 160.832 123.69L163.63 123.875C163.488 124.547 163.197 125.134 162.756 125.636C162.321 126.134 161.757 126.522 161.066 126.801C160.379 127.076 159.586 127.213 158.687 127.213ZM175.546 116.091L171.732 127H168.323L164.509 116.091H167.705L169.971 123.896H170.084L172.343 116.091H175.546ZM181.714 127.213C180.592 127.213 179.626 126.986 178.816 126.531C178.011 126.072 177.391 125.423 176.956 124.585C176.52 123.742 176.302 122.746 176.302 121.595C176.302 120.473 176.52 119.488 176.956 118.641C177.391 117.793 178.004 117.133 178.795 116.659C179.591 116.186 180.523 115.949 181.593 115.949C182.313 115.949 182.983 116.065 183.603 116.297C184.228 116.524 184.773 116.867 185.237 117.327C185.706 117.786 186.07 118.364 186.331 119.06C186.591 119.751 186.721 120.561 186.721 121.489V122.32H177.51V120.445H183.873C183.873 120.009 183.779 119.623 183.589 119.287C183.4 118.951 183.137 118.688 182.801 118.499C182.469 118.304 182.083 118.207 181.643 118.207C181.184 118.207 180.777 118.314 180.422 118.527C180.071 118.735 179.797 119.017 179.598 119.372C179.399 119.723 179.297 120.113 179.292 120.544V122.327C179.292 122.866 179.392 123.333 179.591 123.726C179.794 124.119 180.081 124.422 180.45 124.635C180.819 124.848 181.257 124.955 181.764 124.955C182.1 124.955 182.408 124.907 182.687 124.812C182.967 124.718 183.206 124.576 183.404 124.386C183.603 124.197 183.755 123.965 183.859 123.69L186.657 123.875C186.515 124.547 186.224 125.134 185.784 125.636C185.348 126.134 184.785 126.522 184.093 126.801C183.407 127.076 182.614 127.213 181.714 127.213ZM188.696 127V116.091H191.629V117.994H191.743C191.941 117.317 192.275 116.806 192.744 116.46C193.213 116.11 193.752 115.935 194.363 115.935C194.515 115.935 194.678 115.944 194.853 115.963C195.029 115.982 195.182 116.008 195.315 116.041V118.726C195.173 118.683 194.976 118.645 194.725 118.612C194.475 118.579 194.245 118.562 194.037 118.562C193.592 118.562 193.194 118.66 192.843 118.854C192.498 119.043 192.223 119.308 192.02 119.649C191.821 119.99 191.721 120.383 191.721 120.828V127H188.696ZM199.079 131.091C198.696 131.091 198.336 131.06 198 130.999C197.668 130.942 197.394 130.868 197.176 130.778L197.858 128.52C198.213 128.629 198.532 128.688 198.816 128.697C199.105 128.707 199.354 128.641 199.562 128.499C199.775 128.357 199.948 128.115 200.081 127.774L200.258 127.312L196.345 116.091H199.527L201.785 124.102H201.899L204.179 116.091H207.382L203.142 128.179C202.938 128.766 202.661 129.277 202.311 129.713C201.965 130.153 201.527 130.492 200.997 130.729C200.467 130.97 199.827 131.091 199.079 131.091ZM213.616 127V112.455H219.354C220.458 112.455 221.397 112.665 222.174 113.087C222.951 113.503 223.542 114.083 223.95 114.827C224.362 115.565 224.567 116.418 224.567 117.384C224.567 118.349 224.359 119.202 223.942 119.94C223.526 120.679 222.922 121.254 222.131 121.666C221.345 122.078 220.394 122.284 219.276 122.284H215.619V119.82H218.779C219.371 119.82 219.859 119.718 220.242 119.514C220.63 119.306 220.919 119.019 221.109 118.655C221.303 118.286 221.4 117.862 221.4 117.384C221.4 116.901 221.303 116.479 221.109 116.119C220.919 115.755 220.63 115.473 220.242 115.274C219.854 115.071 219.362 114.969 218.765 114.969H216.691V127H213.616ZM226.508 127V116.091H229.534V127H226.508ZM228.028 114.685C227.578 114.685 227.192 114.536 226.87 114.237C226.553 113.934 226.395 113.572 226.395 113.151C226.395 112.734 226.553 112.376 226.87 112.078C227.192 111.775 227.578 111.624 228.028 111.624C228.478 111.624 228.861 111.775 229.179 112.078C229.501 112.376 229.662 112.734 229.662 113.151C229.662 113.572 229.501 113.934 229.179 114.237C228.861 114.536 228.478 114.685 228.028 114.685ZM234.486 116.091L236.489 119.905L238.541 116.091H241.645L238.484 121.545L241.73 127H238.641L236.489 123.229L234.372 127H231.247L234.486 121.545L231.361 116.091H234.486ZM248.023 127.213C246.901 127.213 245.935 126.986 245.125 126.531C244.32 126.072 243.7 125.423 243.264 124.585C242.829 123.742 242.611 122.746 242.611 121.595C242.611 120.473 242.829 119.488 243.264 118.641C243.7 117.793 244.313 117.133 245.104 116.659C245.899 116.186 246.832 115.949 247.902 115.949C248.622 115.949 249.292 116.065 249.912 116.297C250.537 116.524 251.081 116.867 251.545 117.327C252.014 117.786 252.379 118.364 252.639 119.06C252.9 119.751 253.03 120.561 253.03 121.489V122.32H243.818V120.445H250.182C250.182 120.009 250.087 119.623 249.898 119.287C249.708 118.951 249.446 118.688 249.109 118.499C248.778 118.304 248.392 118.207 247.952 118.207C247.492 118.207 247.085 118.314 246.73 118.527C246.38 118.735 246.105 119.017 245.906 119.372C245.707 119.723 245.606 120.113 245.601 120.544V122.327C245.601 122.866 245.7 123.333 245.899 123.726C246.103 124.119 246.389 124.422 246.759 124.635C247.128 124.848 247.566 124.955 248.072 124.955C248.409 124.955 248.716 124.907 248.996 124.812C249.275 124.718 249.514 124.576 249.713 124.386C249.912 124.197 250.063 123.965 250.168 123.69L252.966 123.875C252.824 124.547 252.533 125.134 252.092 125.636C251.657 126.134 251.093 126.522 250.402 126.801C249.715 127.076 248.922 127.213 248.023 127.213ZM258.03 112.455V127H255.004V112.455H258.03Z" fill="white"/>
</svg>
