<svg width="80" height="80" viewBox="0 0 80 80" fill="none" xmlns="http://www.w3.org/2000/svg">
<circle cx="40" cy="40" r="40" fill="#9B30FF"/>
<path fill-rule="evenodd" clip-rule="evenodd" d="M40.1489 16.4081C39.9089 16.3067 39.6483 16.2543 39.3846 16.2543C39.1209 16.2543 38.8603 16.3067 38.6203 16.4081L28.9354 20.5018L39.3772 24.9178L49.8264 20.4984L40.1489 16.4081ZM27.2 34.0035V23.5327L37.5384 27.9041V39.4755L28.2744 35.5635C27.9519 35.4273 27.6784 35.2078 27.4866 34.9312C27.2947 34.6546 27.1927 34.3326 27.1926 34.0035H27.2ZM41.2307 57.0161V45.5647L51.0227 49.7064V61.2778L41.7698 57.3658C41.5677 57.2805 41.3876 57.162 41.2307 57.0161ZM54.7151 61.2847V49.7064L65.0646 45.3315V55.8058C65.0645 56.1348 64.9624 56.4569 64.7706 56.7335C64.5788 57.0101 64.3053 57.2296 63.9827 57.3658L54.7151 61.2847ZM37.5311 45.5647V57.0298C37.3775 57.1695 37.1988 57.2832 37.0031 57.3658L27.7354 61.2847V49.7064L37.5311 45.5647ZM24.0431 49.7064V61.2778L14.7938 57.3658C14.4713 57.2296 14.1978 57.0101 14.006 56.7335C13.8141 56.4569 13.7121 56.1348 13.712 55.8058V45.335L24.0504 49.7064H24.0431ZM41.2234 39.4824V27.9007L51.5729 23.5258V34.0035C51.5728 34.3326 51.4707 34.6546 51.2789 34.9312C51.0871 35.2078 50.8136 35.4273 50.4911 35.5635L41.2234 39.4824ZM52.1083 38.2138C52.3483 38.1125 52.6089 38.06 52.8726 38.06C53.1363 38.06 53.3969 38.1125 53.6369 38.2138L63.3107 42.3007L52.8615 46.7201L42.4307 42.3007L52.112 38.207L52.1083 38.2138ZM25.1323 38.2138C25.3723 38.1125 25.6329 38.06 25.8966 38.06C26.1603 38.06 26.4209 38.1125 26.6609 38.2138L36.3347 42.3007L25.8892 46.7235L15.4511 42.3007L25.1323 38.2138Z" fill="black"/>
</svg>
