<svg width="239" height="103" viewBox="0 0 239 103" fill="none" xmlns="http://www.w3.org/2000/svg">
<path d="M95.6739 31.9876V28.8182H110.606V31.9876H105.04V47H101.24V31.9876H95.6739ZM116.777 39.1165V47H112.995V28.8182H116.67V35.7695H116.83C117.138 34.9646 117.635 34.3343 118.321 33.8786C119.008 33.4169 119.869 33.1861 120.905 33.1861C121.852 33.1861 122.677 33.3932 123.382 33.8075C124.092 34.2159 124.642 34.8048 125.033 35.5742C125.429 36.3377 125.625 37.2521 125.619 38.3175V47H121.837V38.9922C121.843 38.1518 121.63 37.4978 121.198 37.0302C120.772 36.5626 120.174 36.3288 119.404 36.3288C118.889 36.3288 118.434 36.4383 118.037 36.6573C117.647 36.8763 117.339 37.1959 117.114 37.6161C116.895 38.0304 116.782 38.5305 116.777 39.1165ZM134.81 47.2663C133.407 47.2663 132.2 46.9822 131.188 46.4141C130.181 45.84 129.406 45.0291 128.862 43.9815C128.317 42.928 128.045 41.6822 128.045 40.244C128.045 38.8413 128.317 37.6102 128.862 36.5508C129.406 35.4914 130.172 34.6657 131.161 34.0739C132.155 33.482 133.321 33.1861 134.659 33.1861C135.558 33.1861 136.396 33.3311 137.171 33.6211C137.952 33.9052 138.633 34.3343 139.213 34.9084C139.799 35.4825 140.255 36.2045 140.58 37.0746C140.906 37.9387 141.069 38.9508 141.069 40.1108V41.1495H129.554V38.8058H137.509C137.509 38.2612 137.39 37.7789 137.153 37.3587C136.917 36.9384 136.588 36.61 136.168 36.3732C135.754 36.1306 135.271 36.0092 134.721 36.0092C134.147 36.0092 133.638 36.1424 133.194 36.4087C132.756 36.6692 132.413 37.0213 132.164 37.4652C131.915 37.9032 131.788 38.3915 131.782 38.93V41.1584C131.782 41.8331 131.907 42.4161 132.155 42.9073C132.41 43.3986 132.768 43.7773 133.229 44.0437C133.691 44.31 134.239 44.4432 134.872 44.4432C135.292 44.4432 135.677 44.384 136.026 44.2656C136.375 44.1473 136.674 43.9697 136.923 43.733C137.171 43.4962 137.361 43.2062 137.491 42.8629L140.989 43.0938C140.811 43.9342 140.447 44.6681 139.897 45.2955C139.352 45.9169 138.648 46.4022 137.784 46.7514C136.926 47.0947 135.934 47.2663 134.81 47.2663ZM155.839 47H149.394V28.8182H155.892C157.721 28.8182 159.295 29.1822 160.615 29.9102C161.935 30.6322 162.95 31.6709 163.66 33.0263C164.377 34.3816 164.735 36.0033 164.735 37.8913C164.735 39.7853 164.377 41.4129 163.66 42.7741C162.95 44.1354 161.929 45.18 160.598 45.908C159.272 46.636 157.686 47 155.839 47ZM153.238 43.7063H155.679C156.816 43.7063 157.771 43.5051 158.547 43.1026C159.328 42.6942 159.914 42.0639 160.305 41.2116C160.701 40.3535 160.899 39.2467 160.899 37.8913C160.899 36.5478 160.701 35.4499 160.305 34.5977C159.914 33.7454 159.331 33.118 158.556 32.7156C157.78 32.3131 156.824 32.1119 155.688 32.1119H153.238V43.7063ZM173.726 47.2663C172.323 47.2663 171.116 46.9822 170.104 46.4141C169.097 45.84 168.322 45.0291 167.778 43.9815C167.233 42.928 166.961 41.6822 166.961 40.244C166.961 38.8413 167.233 37.6102 167.778 36.5508C168.322 35.4914 169.088 34.6657 170.077 34.0739C171.071 33.482 172.237 33.1861 173.575 33.1861C174.474 33.1861 175.312 33.3311 176.087 33.6211C176.868 33.9052 177.549 34.3343 178.129 34.9084C178.715 35.4825 179.171 36.2045 179.496 37.0746C179.822 37.9387 179.985 38.9508 179.985 40.1108V41.1495H168.47V38.8058H176.425C176.425 38.2612 176.306 37.7789 176.069 37.3587C175.833 36.9384 175.504 36.61 175.084 36.3732C174.67 36.1306 174.187 36.0092 173.637 36.0092C173.063 36.0092 172.554 36.1424 172.11 36.4087C171.672 36.6692 171.329 37.0213 171.08 37.4652C170.831 37.9032 170.704 38.3915 170.698 38.93V41.1584C170.698 41.8331 170.823 42.4161 171.071 42.9073C171.326 43.3986 171.684 43.7773 172.145 44.0437C172.607 44.31 173.155 44.4432 173.788 44.4432C174.208 44.4432 174.593 44.384 174.942 44.2656C175.291 44.1473 175.59 43.9697 175.839 43.733C176.087 43.4962 176.277 43.2062 176.407 42.8629L179.905 43.0938C179.727 43.9342 179.363 44.6681 178.813 45.2955C178.268 45.9169 177.564 46.4022 176.7 46.7514C175.842 47.0947 174.85 47.2663 173.726 47.2663ZM193.798 37.2521L190.336 37.4652C190.277 37.1693 190.15 36.9029 189.954 36.6662C189.759 36.4235 189.502 36.2312 189.182 36.0891C188.868 35.9412 188.492 35.8672 188.055 35.8672C187.469 35.8672 186.974 35.9915 186.572 36.2401C186.169 36.4827 185.968 36.8082 185.968 37.2166C185.968 37.5421 186.098 37.8174 186.359 38.0423C186.619 38.2672 187.066 38.4477 187.699 38.5838L190.167 39.081C191.493 39.3532 192.482 39.7912 193.133 40.3949C193.784 40.9986 194.109 41.7917 194.109 42.7741C194.109 43.6679 193.846 44.4521 193.319 45.1268C192.798 45.8015 192.082 46.3282 191.171 46.707C190.265 47.0799 189.22 47.2663 188.037 47.2663C186.232 47.2663 184.793 46.8905 183.722 46.1388C182.657 45.3813 182.032 44.3514 181.849 43.0494L185.569 42.854C185.681 43.4045 185.953 43.8247 186.385 44.1147C186.818 44.3988 187.371 44.5408 188.046 44.5408C188.709 44.5408 189.241 44.4136 189.644 44.1591C190.052 43.8987 190.259 43.5643 190.265 43.1559C190.259 42.8126 190.114 42.5315 189.83 42.3125C189.546 42.0876 189.108 41.916 188.516 41.7976L186.155 41.3271C184.823 41.0607 183.832 40.5991 183.181 39.9421C182.535 39.2852 182.213 38.4477 182.213 37.4297C182.213 36.5537 182.45 35.7991 182.923 35.1658C183.403 34.5326 184.074 34.0443 184.938 33.701C185.808 33.3577 186.826 33.1861 187.992 33.1861C189.715 33.1861 191.07 33.5501 192.058 34.2781C193.053 35.006 193.633 35.9974 193.798 37.2521ZM196.491 47V33.3636H200.273V47H196.491ZM198.391 31.6058C197.828 31.6058 197.346 31.4194 196.943 31.0465C196.547 30.6677 196.349 30.215 196.349 29.6882C196.349 29.1674 196.547 28.7205 196.943 28.3477C197.346 27.9689 197.828 27.7795 198.391 27.7795C198.953 27.7795 199.432 27.9689 199.829 28.3477C200.231 28.7205 200.432 29.1674 200.432 29.6882C200.432 30.215 200.231 30.6677 199.829 31.0465C199.432 31.4194 198.953 31.6058 198.391 31.6058ZM209.446 52.3977C208.221 52.3977 207.17 52.229 206.294 51.8917C205.424 51.5603 204.732 51.1075 204.217 50.5334C203.702 49.9593 203.367 49.3142 203.213 48.598L206.711 48.1275C206.818 48.3997 206.987 48.6542 207.217 48.891C207.448 49.1277 207.753 49.3171 208.132 49.4592C208.516 49.6071 208.984 49.6811 209.534 49.6811C210.357 49.6811 211.035 49.4799 211.567 49.0774C212.106 48.6809 212.375 48.015 212.375 47.0799V44.5852H212.216C212.05 44.964 211.801 45.3221 211.47 45.6594C211.138 45.9968 210.712 46.272 210.191 46.4851C209.671 46.6982 209.049 46.8047 208.327 46.8047C207.303 46.8047 206.371 46.5679 205.531 46.0945C204.696 45.6151 204.03 44.8841 203.533 43.9016C203.042 42.9132 202.796 41.6644 202.796 40.1552C202.796 38.6104 203.048 37.3202 203.551 36.2844C204.054 35.2487 204.723 34.4734 205.557 33.9585C206.398 33.4435 207.318 33.1861 208.318 33.1861C209.082 33.1861 209.721 33.3163 210.236 33.5767C210.751 33.8312 211.165 34.1508 211.479 34.5355C211.798 34.9143 212.044 35.2872 212.216 35.6541H212.358V33.3636H216.113V47.1332C216.113 48.2932 215.829 49.2638 215.261 50.0451C214.692 50.8263 213.905 51.4123 212.899 51.8029C211.899 52.1995 210.748 52.3977 209.446 52.3977ZM209.526 43.9638C210.135 43.9638 210.65 43.8129 211.07 43.511C211.496 43.2032 211.822 42.7653 212.047 42.1971C212.278 41.623 212.393 40.9364 212.393 40.1374C212.393 39.3384 212.281 38.646 212.056 38.06C211.831 37.4682 211.505 37.0095 211.079 36.6839C210.653 36.3584 210.135 36.1957 209.526 36.1957C208.904 36.1957 208.38 36.3643 207.954 36.7017C207.528 37.0331 207.205 37.4948 206.987 38.0866C206.768 38.6785 206.658 39.3621 206.658 40.1374C206.658 40.9246 206.768 41.6052 206.987 42.1793C207.211 42.7475 207.534 43.1884 207.954 43.5021C208.38 43.8099 208.904 43.9638 209.526 43.9638ZM222.904 39.1165V47H219.123V33.3636H222.727V35.7695H222.887C223.189 34.9764 223.695 34.3491 224.405 33.8874C225.115 33.4199 225.976 33.1861 226.988 33.1861C227.935 33.1861 228.761 33.3932 229.465 33.8075C230.17 34.2218 230.717 34.8137 231.108 35.5831C231.498 36.3466 231.694 37.258 231.694 38.3175V47H227.912V38.9922C227.917 38.1577 227.704 37.5066 227.272 37.0391C226.84 36.5656 226.246 36.3288 225.488 36.3288C224.979 36.3288 224.529 36.4383 224.138 36.6573C223.754 36.8763 223.452 37.1959 223.233 37.6161C223.02 38.0304 222.91 38.5305 222.904 39.1165Z" fill="black"/>
<path d="M108.57 73.174C105.573 73.174 103.369 72.4103 101.958 70.883C100.566 69.3557 99.87 67.345 99.87 64.851C99.87 62.3377 100.295 60.0563 101.146 58.007C102.016 55.9383 103.302 54.2467 105.003 52.932C106.704 51.598 108.541 50.931 110.513 50.931C112.504 50.931 114.061 51.4143 115.182 52.381C116.323 53.3283 116.893 54.614 116.893 56.238C116.893 57.8427 116.39 59.1767 115.385 60.24C114.399 61.3033 113.239 61.835 111.905 61.835C110.571 61.835 109.537 61.545 108.802 60.965C108.067 60.3657 107.7 59.7373 107.7 59.08C107.7 58.4033 107.961 57.8813 108.483 57.514C109.024 57.1273 109.807 56.934 110.832 56.934C110.581 57.1853 110.455 57.5237 110.455 57.949C110.455 58.355 110.581 58.7127 110.832 59.022C111.083 59.3313 111.47 59.486 111.992 59.486C112.514 59.486 113.036 59.2153 113.558 58.674C114.08 58.1133 114.341 57.3787 114.341 56.47C114.341 55.5613 114.061 54.8363 113.5 54.295C112.959 53.7537 112.185 53.483 111.18 53.483C109.865 53.483 108.667 54.0147 107.584 55.078C106.521 56.1413 105.709 57.4947 105.148 59.138C104.587 60.7813 104.307 62.5117 104.307 64.329C104.307 65.895 104.645 67.2773 105.322 68.476C105.67 69.0947 106.182 69.5877 106.859 69.955C107.555 70.3223 108.367 70.506 109.295 70.506C110.88 70.506 112.408 70.0033 113.877 68.998C115.346 67.9733 116.584 66.6587 117.589 65.054L118.575 66.823C117.434 68.679 116.004 70.2063 114.283 71.405C112.562 72.5843 110.658 73.174 108.57 73.174ZM124.236 59.051C126.014 59.051 127.493 59.6213 128.673 60.762C129.871 61.9027 130.471 63.2947 130.471 64.938C130.471 67.432 129.736 69.433 128.267 70.941C126.817 72.4297 125.057 73.174 122.989 73.174C120.92 73.174 119.277 72.5843 118.059 71.405C116.86 70.2257 116.261 68.766 116.261 67.026C116.261 64.59 117.005 62.6567 118.494 61.226C120.002 59.776 121.916 59.051 124.236 59.051ZM123.656 61.4C122.747 61.4 121.983 61.922 121.365 62.966C120.746 64.01 120.408 65.3247 120.35 66.91C120.35 68.0313 120.572 68.9593 121.017 69.694C121.481 70.4287 122.177 70.796 123.105 70.796C124.033 70.796 124.806 70.2837 125.425 69.259C126.063 68.2343 126.382 67.0647 126.382 65.75C126.382 64.4353 126.159 63.3913 125.715 62.618C125.27 61.806 124.584 61.4 123.656 61.4ZM139.882 73L140.984 63.372C140.984 62.8307 140.849 62.386 140.578 62.038C140.327 61.6707 139.872 61.487 139.215 61.487C138.558 61.487 138.016 61.806 137.591 62.444C137.166 63.0627 136.895 63.72 136.779 64.416C136.102 69.23 135.725 72.0913 135.648 73H131.762L133.357 59.37C134.169 59.1573 134.788 59.051 135.213 59.051C136.431 59.051 137.098 59.457 137.214 60.269C138.161 59.457 139.196 59.051 140.317 59.051C142.56 59.051 143.99 59.718 144.609 61.052C145.556 59.6987 146.91 59.022 148.669 59.022C149.964 59.022 150.989 59.3603 151.743 60.037C152.497 60.6943 152.874 61.5257 152.874 62.531C152.874 62.821 152.816 63.3333 152.7 64.068C152.255 66.968 152.033 68.6693 152.033 69.172C152.033 70.0807 152.333 70.535 152.932 70.535C153.435 70.535 153.966 70.2063 154.527 69.549C155.107 68.8723 155.571 67.838 155.919 66.446C156.576 67.142 156.973 67.693 157.108 68.099C156.103 71.463 154.324 73.145 151.772 73.145C150.573 73.145 149.684 72.7777 149.104 72.043C148.524 71.3083 148.234 70.535 148.234 69.723L148.93 63.314C148.93 62.792 148.795 62.357 148.524 62.009C148.253 61.661 147.818 61.487 147.219 61.487C146.639 61.487 146.127 61.7093 145.682 62.154C145.237 62.5987 144.928 63.169 144.754 63.865C144.174 68.7757 143.797 71.8207 143.623 73H139.882ZM158.202 59.022C159.458 59.022 160.193 59.341 160.406 59.979C161.314 59.341 162.465 59.022 163.857 59.022C165.249 59.022 166.447 59.5923 167.453 60.733C168.458 61.8737 168.961 63.2077 168.961 64.735C168.961 64.9477 168.951 65.17 168.932 65.402C168.719 67.9347 167.868 69.868 166.38 71.202C164.891 72.5167 162.948 73.174 160.551 73.174C160.009 73.174 159.42 73.1063 158.782 72.971L157.854 80.946H154.055C155.292 70.2933 156.123 63.0627 156.549 59.254C156.955 59.0993 157.506 59.022 158.202 59.022ZM164.872 64.938C164.872 64.0873 164.678 63.3333 164.292 62.676C163.905 62.0187 163.306 61.69 162.494 61.69C161.392 61.69 160.551 62.4053 159.971 63.836C159.584 66.6973 159.362 68.36 159.304 68.824C159.284 69.404 159.468 69.839 159.855 70.129C160.241 70.419 160.715 70.564 161.276 70.564C162.262 70.564 163.074 70.1193 163.712 69.23C164.485 68.128 164.872 66.6973 164.872 64.938ZM183.266 73.145C181.488 73.145 180.308 72.5263 179.728 71.289C178.723 72.5457 177.428 73.174 175.842 73.174C174.276 73.174 172.952 72.6423 171.869 71.579C170.806 70.5157 170.274 69.114 170.274 67.374C170.274 64.8413 171.019 62.821 172.507 61.313C173.996 59.805 175.881 59.051 178.162 59.051C178.22 59.051 178.278 59.051 178.336 59.051C179.303 59.051 180.192 59.2153 181.004 59.544C181.526 59.2153 182.155 59.051 182.889 59.051C183.643 59.051 184.185 59.1477 184.513 59.341C184.339 60.7717 184.156 62.183 183.962 63.575C183.769 64.9477 183.634 65.924 183.556 66.504C183.382 67.8187 183.295 68.766 183.295 69.346C183.295 70.1193 183.605 70.506 184.223 70.506C184.707 70.506 185.219 70.187 185.76 69.549C186.302 68.8917 186.775 67.867 187.181 66.475C187.742 66.9777 188.129 67.5383 188.341 68.157C187.781 69.9937 187.027 71.289 186.079 72.043C185.132 72.7777 184.194 73.145 183.266 73.145ZM178.597 61.313C177.36 61.313 176.374 61.7867 175.639 62.734C174.924 63.662 174.499 65.054 174.363 66.91C174.344 67.084 174.334 67.2483 174.334 67.403C174.334 68.3503 174.557 69.1043 175.001 69.665C175.465 70.2257 176.055 70.506 176.77 70.506C177.988 70.506 178.907 69.6457 179.525 67.925L180.221 61.661C179.661 61.429 179.119 61.313 178.597 61.313ZM194.514 69.752L195.21 63.285C195.21 62.763 195.075 62.328 194.804 61.98C194.533 61.632 194.079 61.458 193.441 61.458C192.822 61.458 192.291 61.7383 191.846 62.299C191.421 62.8403 191.15 63.5267 191.034 64.358C190.338 69.6553 189.971 72.536 189.932 73H186.017L187.612 59.341C188.424 59.1283 189.043 59.022 189.468 59.022C190.763 59.022 191.44 59.4957 191.498 60.443C192.445 59.515 193.576 59.051 194.891 59.051C196.225 59.051 197.269 59.3797 198.023 60.037C198.777 60.6943 199.154 61.5257 199.154 62.531C199.154 62.8017 199.096 63.314 198.98 64.068C198.535 67.0067 198.313 68.7177 198.313 69.201C198.313 70.0903 198.613 70.535 199.212 70.535C200.527 70.535 201.522 69.1623 202.199 66.417C202.856 67.113 203.253 67.664 203.388 68.07C202.363 71.4727 200.585 73.174 198.052 73.174C196.853 73.174 195.964 72.8067 195.384 72.072C194.804 71.3373 194.514 70.564 194.514 69.752ZM206.275 81.613C205.173 81.613 204.226 81.2747 203.433 80.598C202.64 79.9407 202.244 78.974 202.244 77.698C202.244 76.132 203.037 74.6047 204.622 73.116C203.501 73.0193 202.602 72.652 201.925 72.014C201.248 71.376 200.91 70.477 200.91 69.317C200.91 68.7757 200.978 67.9637 201.113 66.881C201.248 65.7983 201.393 64.6287 201.548 63.372C201.703 62.1153 201.867 60.7813 202.041 59.37C202.64 59.1573 203.191 59.051 203.694 59.051C204.197 59.051 204.574 59.0703 204.825 59.109C205.076 59.1477 205.318 59.2927 205.55 59.544C205.782 59.7953 205.898 60.153 205.898 60.617L204.941 68.012C204.902 68.3213 204.883 68.534 204.883 68.65C204.883 69.7907 205.405 70.361 206.449 70.361C207.396 70.361 208.17 69.9163 208.769 69.027C208.827 68.5823 208.972 67.3063 209.204 65.199C209.436 63.0723 209.629 61.4193 209.784 60.24C209.958 59.8727 210.316 59.5827 210.857 59.37C211.418 59.1573 211.872 59.051 212.22 59.051C212.839 59.051 213.399 59.1283 213.902 59.283L212.539 69.984C214.801 70.39 216.154 71.9463 216.599 74.653C216.522 75.0203 216.154 75.6003 215.497 76.393C215.11 73.9763 214.047 72.507 212.307 71.985L211.843 75.61C211.63 77.35 211.079 78.7807 210.19 79.902C209.301 81.0427 207.996 81.613 206.275 81.613ZM204.506 77.147C204.506 77.785 204.661 78.2587 204.97 78.568C205.279 78.8773 205.685 79.032 206.188 79.032C206.71 79.032 207.106 78.8193 207.377 78.394C207.648 77.9687 207.86 77.118 208.015 75.842L208.392 72.652C205.859 73.9667 204.564 75.465 204.506 77.147Z" fill="black"/>
<path d="M50.0559 18.6365C49.8887 18.6928 49.3036 18.7653 48.7602 18.7894C48.2169 18.8216 47.6317 18.894 47.4561 18.9584C47.289 19.0228 46.9546 19.071 46.7205 19.071C46.4948 19.071 46.1688 19.1274 45.9933 19.1998C45.8261 19.2642 45.4583 19.3527 45.1824 19.3849C44.9065 19.4251 44.5722 19.4975 44.4301 19.5378C43.9034 19.7228 43.3266 19.8918 42.9839 19.9562C42.7833 19.9964 42.5408 20.0849 42.4405 20.1574C42.3402 20.2217 42.1647 20.2781 42.0476 20.2781C41.9306 20.2781 41.7467 20.3344 41.638 20.4149C41.5294 20.4873 41.3036 20.5758 41.1365 20.608C40.7018 20.6965 39.9996 20.946 39.3726 21.2356C39.0717 21.3724 38.7875 21.4851 38.7373 21.4851C38.6872 21.4851 38.5952 21.5414 38.5367 21.6058C38.4782 21.6702 38.3695 21.7265 38.2859 21.7265C38.1522 21.7265 37.8679 21.8714 37.0487 22.3461C36.8732 22.4427 36.6809 22.5473 36.614 22.5795C36.5472 22.6117 36.2797 22.7726 36.0289 22.9335C35.4939 23.2796 34.9589 23.6095 33.8554 24.2613C32.4929 25.074 31.7405 25.6856 29.5922 27.7617C27.9454 29.3389 27.2097 30.1677 25.9642 31.8575C21.9851 37.2328 20.6811 40.2987 19.7114 46.5511C19.5609 47.5248 19.5358 48.072 19.5358 50.655C19.5275 53.6967 19.6111 54.8153 19.9454 56.3281C20.004 56.6178 20.0959 57.1489 20.1377 57.519C20.1879 57.8811 20.2547 58.2432 20.2965 58.3237C20.3383 58.3961 20.3968 58.6697 20.4303 58.9272C20.4554 59.1847 20.539 59.5066 20.6058 59.6273C20.6727 59.756 20.7312 59.9572 20.7312 60.0699C20.7312 60.1906 20.7814 60.3998 20.8483 60.5366C20.9151 60.6814 21.0154 60.947 21.0656 61.1321C21.1158 61.3171 21.191 61.4942 21.2328 61.5183C21.2829 61.5424 21.3164 61.6551 21.3164 61.7678C21.3164 61.9689 21.5421 62.5805 21.7845 63.0311C21.8514 63.1599 21.9015 63.2967 21.9015 63.3369C21.9015 63.3771 22.052 63.7071 22.2276 64.0772C22.4031 64.4393 22.6372 64.9141 22.7375 65.1394C22.8378 65.3567 22.9548 65.5981 22.9966 65.6624C23.0384 65.7268 23.0969 65.8395 23.122 65.9039C23.214 66.1372 23.3226 66.3464 23.4731 66.5557C23.5483 66.6764 23.7406 66.966 23.8911 67.1994C24.0415 67.4408 24.3341 67.8834 24.5347 68.1972C24.7437 68.503 24.936 68.8168 24.9611 68.8812C24.9945 68.9456 25.0865 69.0743 25.1617 69.1628C25.2453 69.2514 25.4125 69.4686 25.5379 69.6457C25.9391 70.2331 28.0624 72.5345 28.6392 73.0092C28.9485 73.2748 29.7343 73.9668 30.3779 74.5542C31.6068 75.6728 32.844 76.6545 33.9641 77.3867C34.3236 77.6201 34.6329 77.8132 34.6496 77.8132C34.6663 77.8132 34.8586 77.9339 35.0759 78.0707C35.5106 78.3604 36.288 78.803 36.614 78.9478C36.7311 79.0042 37.3998 79.3099 38.102 79.6399C38.8042 79.9617 39.4228 80.2273 39.4646 80.2273C39.5147 80.2273 39.6569 80.2756 39.7739 80.3399C39.8993 80.4043 40.2086 80.5331 40.4594 80.6216C40.7101 80.7101 41.2619 80.9032 41.6715 81.0561C42.0894 81.209 42.708 81.4102 43.0508 81.5067C43.3935 81.6033 43.8449 81.7321 44.0539 81.7964C44.2629 81.8608 44.6223 81.9493 44.848 81.9896C45.0821 82.0298 45.4332 82.1103 45.6422 82.1585C46.7289 82.4241 46.8626 82.4402 48.8605 82.6816C51.5522 82.9954 55.6734 83.0035 57.6797 82.6896C58.0726 82.6253 58.6995 82.5528 59.0757 82.5287C59.4602 82.4965 59.8698 82.4402 59.9952 82.3919C60.129 82.3356 60.4717 82.2712 60.7726 82.239C61.8426 82.1264 65.1028 81.201 66.3316 80.6699C66.4737 80.6055 66.8165 80.4606 67.109 80.348C67.6022 80.1549 68.271 79.8652 69.3828 79.3582C69.876 79.1329 71.8237 78.0627 71.8906 77.9742C71.9157 77.942 72.0244 77.8696 72.1414 77.8132C72.7767 77.4994 74.6325 76.1717 75.7526 75.2302C76.5551 74.5542 79.3304 71.8746 79.8237 71.2953C80.0744 71.0056 80.4339 70.5871 80.6345 70.3699C80.8268 70.1446 81.1277 69.7824 81.2865 69.5652C81.6711 69.0502 82.1894 68.326 82.298 68.165C82.3482 68.0926 82.6324 67.6742 82.9333 67.2316C83.2343 66.789 83.6522 66.0809 83.8696 65.6624C84.229 64.9704 84.4046 64.6485 84.6136 64.2945C84.647 64.2301 84.7222 64.0853 84.764 63.9726C84.8142 63.8599 84.9062 63.6749 84.973 63.5542C85.0399 63.4415 85.0984 63.2967 85.0984 63.2323C85.1068 63.176 85.1737 62.9828 85.2656 62.8058C85.3576 62.6288 85.4244 62.4437 85.4328 62.4035C85.4328 62.3552 85.508 62.1782 85.6 62.0011C85.6919 61.8241 85.7672 61.6068 85.7672 61.5183C85.7672 61.4217 85.8006 61.3171 85.8424 61.2689C85.9176 61.1964 86.0932 60.7056 86.6282 59.064C86.9375 58.1064 87.0545 57.6317 87.1966 56.7304C87.2468 56.4407 87.3304 55.9499 87.3972 55.6441C87.5561 54.8796 87.7316 52.0149 87.7233 50.2929C87.7233 48.7399 87.5059 45.6982 87.3805 45.3843C87.3304 45.2717 87.2719 44.9096 87.2384 44.5796C87.205 44.2497 87.1214 43.8554 87.0545 43.7025C86.9876 43.5577 86.9375 43.3565 86.9375 43.268C86.9375 43.1795 86.8622 42.8657 86.7619 42.576C86.67 42.2863 86.5279 41.8437 86.461 41.6023C86.2854 41.0149 85.9845 40.1619 85.7254 39.4699C85.6 39.156 85.4746 38.7939 85.4411 38.6652C85.3994 38.5284 85.3074 38.3111 85.2322 38.1824C85.1569 38.0456 85.0984 37.9007 85.0984 37.8444C85.0984 37.7559 84.8811 37.2811 84.6804 36.9351C84.647 36.8707 84.4297 36.4684 84.2123 36.0499C83.9866 35.6315 83.5686 34.9314 83.2761 34.4889C82.9835 34.0543 82.7076 33.6198 82.6658 33.5232C82.6157 33.4347 82.4903 33.2094 82.3816 33.0324C82.2646 32.8553 82.1058 32.5657 82.0138 32.3886C81.9219 32.2116 81.7714 31.9782 81.6794 31.8656C81.5875 31.7529 81.3869 31.5035 81.228 31.3023C80.902 30.8758 80.5676 30.7471 80.0911 30.8919C79.832 30.9643 79.3555 31.3828 77.7923 32.8956C76.7056 33.9417 75.6941 34.9717 75.5353 35.1889C75.3765 35.3982 75.109 35.6798 74.9334 35.8166C74.3315 36.2672 73.8551 36.9592 73.9554 37.2328C74.0306 37.4421 74.7328 38.5525 74.9167 38.7537C75.0003 38.8422 75.0672 38.9468 75.0672 38.9871C75.0672 39.0192 75.1926 39.2365 75.343 39.4618C75.4935 39.6871 75.7861 40.2343 75.9783 40.6769C76.179 41.1195 76.4715 41.723 76.622 42.0288C76.7808 42.3265 76.9062 42.6323 76.9062 42.7128C76.9062 42.7932 76.9647 42.93 77.0316 43.0185C77.0985 43.1151 77.1904 43.3324 77.2322 43.5014C77.274 43.6784 77.3493 43.9198 77.3994 44.0566C77.6586 44.7889 77.7672 45.159 77.8425 45.666C77.8926 45.9717 77.9846 46.3017 78.0431 46.3902C78.11 46.4787 78.1601 46.7362 78.1601 46.9615C78.1601 47.1868 78.227 47.5328 78.3022 47.726C78.4193 48.0237 78.4527 48.4663 78.4778 50.5906C78.5029 52.884 78.4945 53.1576 78.344 53.7692C78.2521 54.1393 78.1518 54.6382 78.1351 54.8957C78.0933 55.3222 78.0347 55.5395 77.6419 56.8511C77.0985 58.6375 76.179 60.6814 74.9836 62.7253C74.1142 64.2221 72.4507 66.0889 71.0129 67.1914C70.7537 67.3925 70.3608 67.6983 70.1519 67.8753C69.3995 68.503 68.2041 69.364 68.0787 69.364C68.0536 69.364 67.8363 69.4847 67.6022 69.6296C66.7496 70.1446 66.1979 70.4182 65.2449 70.8044C64.7851 70.9975 64.317 71.1907 64.2 71.2389C63.4058 71.5608 62.5615 71.8103 61.6253 71.9873C61.2909 72.0436 60.9482 72.1321 60.8646 72.1724C60.781 72.2207 60.3881 72.2931 60.0036 72.3333C59.619 72.3735 59.2094 72.4299 59.0924 72.4621C58.7831 72.5345 58.6076 72.2931 58.4989 71.6493C58.4069 71.0699 58.4404 67.2316 58.5908 60.5929C58.7413 54.3244 58.6828 41.5057 58.4654 31.7127C58.4404 30.5942 58.4404 29.5561 58.4654 29.4113C58.5407 29.0572 58.8082 28.9526 59.502 29.017C59.8113 29.0411 60.2293 29.1135 60.4383 29.1699C60.6472 29.2342 61.0234 29.3067 61.2742 29.3308C61.525 29.363 61.8092 29.4274 61.9011 29.4757C61.9931 29.5239 62.2021 29.5883 62.3609 29.6205C62.712 29.6929 63.3557 29.9102 63.8322 30.1114C64.0161 30.1918 64.2501 30.2562 64.3421 30.2562C64.434 30.2562 64.5594 30.3125 64.6179 30.3769C64.6765 30.4413 64.7851 30.4976 64.8687 30.4976C65.2198 30.4976 67.8363 31.8817 67.945 32.1231C67.9868 32.2035 69.3744 32.9599 69.6085 33.0243C69.7088 33.0565 69.8843 33.0404 69.9847 32.9841C70.0933 32.9358 70.7454 32.3564 71.4308 31.7127C72.1247 31.0609 72.8937 30.3689 73.1445 30.1677C73.3953 29.9746 73.7213 29.701 73.8634 29.5722C75.9783 27.5766 76.1539 27.3996 76.204 27.1501C76.2291 27.0053 76.2291 26.8121 76.1957 26.7236C76.1204 26.4983 75.2761 25.6936 74.4904 25.1062C74.1393 24.8407 73.738 24.5429 73.5959 24.4303C73.4622 24.3176 73.1027 24.1084 72.8018 23.9635C72.5092 23.8187 72.1497 23.6175 72.016 23.529C71.7986 23.3842 71.1968 23.0542 70.4528 22.6841C70.3441 22.6278 70.202 22.5553 70.1351 22.5232C68.7224 21.7828 67.9115 21.4046 67.7611 21.4046C67.7026 21.4046 67.6022 21.3483 67.5437 21.2839C67.4852 21.2196 67.3682 21.1632 67.2762 21.1632C67.1926 21.1632 67.0004 21.1069 66.8499 21.0264C66.6994 20.954 66.4737 20.8655 66.3316 20.8333C65.9304 20.7367 65.3452 20.5275 65.1028 20.3988C64.9858 20.3344 64.8186 20.2781 64.7266 20.2781C64.643 20.2781 64.4675 20.2217 64.3337 20.1574C64.2 20.093 63.9408 20.0125 63.7486 19.9884C63.5647 19.9562 63.3139 19.8918 63.1968 19.8355C63.0798 19.7792 62.8207 19.7067 62.6117 19.6746C62.4027 19.6424 62.0683 19.5699 61.8594 19.5136C61.4581 19.3929 60.8897 19.2803 60.0621 19.1354C59.7862 19.0871 59.3766 19.0067 59.1426 18.9423C58.9169 18.886 58.315 18.8216 57.8051 18.7894C57.3035 18.7653 56.7016 18.6928 56.4759 18.6285C55.9075 18.4595 50.5324 18.4675 50.0559 18.6365ZM48.3004 29.0653C48.4426 29.2021 48.4426 72.108 48.3004 72.2448C47.9828 72.5506 44.9567 72.108 43.6777 71.5689C43.544 71.5125 43.1845 71.3677 42.8836 71.255C42.1396 70.9653 40.5346 70.2411 40.0832 69.9836C39.4479 69.6215 37.985 68.6478 37.5336 68.2777C37.2326 68.0363 36.6558 67.5696 36.2379 67.2396C35.3769 66.5637 33.7635 64.9865 33.3957 64.4554C33.2619 64.2542 32.9443 63.8278 32.7019 63.4978C32.1669 62.7897 31.1303 61.0999 31.0467 60.8021C31.0216 60.6895 30.9464 60.5607 30.8795 60.5044C30.8126 60.4561 30.7625 60.3354 30.7625 60.2389C30.7625 60.1423 30.7123 59.9974 30.6538 59.9089C30.4197 59.5629 29.7426 57.9455 29.542 57.2535C29.4751 57.0282 29.3915 56.7787 29.3497 56.6902C29.2996 56.6017 29.2327 56.3683 29.1909 56.1671C29.1408 55.966 29.0655 55.6924 29.0237 55.5636C28.798 54.9279 28.6476 53.9703 28.5389 52.3851C28.3466 49.7216 28.5472 46.8408 29.0488 45.1027C29.1073 44.8774 29.1826 44.5716 29.216 44.4187C29.2494 44.2658 29.3665 43.8796 29.4835 43.5738C29.6005 43.2599 29.751 42.8737 29.8095 42.7047C29.8764 42.5438 29.96 42.3426 30.0018 42.2621C30.0519 42.1897 30.1606 41.9644 30.2526 41.7632C31.1386 39.84 31.3309 39.486 31.9829 38.5364C32.6601 37.5467 33.3455 36.7661 34.8084 35.3257C36.0205 34.1348 37.2326 33.0887 38.0184 32.5657C38.5868 32.1794 39.2138 31.769 39.4144 31.6483C39.6986 31.4793 41.7969 30.4976 41.8804 30.4976C41.9139 30.4976 42.056 30.4413 42.1897 30.3849C42.4405 30.2562 43.1343 30.0309 43.4687 29.9585C43.5858 29.9424 43.87 29.8539 44.0957 29.7734C44.8815 29.4917 45.6422 29.2906 45.9013 29.2906C46.0434 29.2906 46.2357 29.2503 46.3276 29.2021C46.6704 29.025 48.15 28.9204 48.3004 29.0653Z" fill="black"/>
</svg>
