<svg width="80" height="80" viewBox="0 0 80 80" fill="none" xmlns="http://www.w3.org/2000/svg">
<circle cx="40" cy="40" r="40" fill="#FFA500"/>
<path d="M40.4002 69.529C36.042 69.5287 31.7844 68.3342 28.1794 66.1004C24.5744 63.8666 21.7883 60.6966 20.1825 57.0014C18.5766 53.3061 18.2249 49.2561 19.1731 45.3764C20.1212 41.4967 22.3255 37.9662 25.5 35.2428C29.3918 31.9023 38.9502 25.8877 37.5002 12.6631C54.9002 23.2428 63.6003 33.8225 46.2003 49.692C49.1003 49.692 53.4502 49.692 60.7003 43.1591C61.4832 45.2036 62.1502 47.4015 62.1502 49.692C62.1502 54.9531 59.8587 59.9987 55.7798 63.7189C51.7009 67.439 46.1687 69.529 40.4002 69.529Z" fill="black"/>
</svg>
