<svg width="84" height="84" viewBox="0 0 84 84" fill="none" xmlns="http://www.w3.org/2000/svg">
<path d="M24.5 0.333374H59.5C72.8333 0.333374 83.6667 11.1667 83.6667 24.5V59.5C83.6667 65.9094 81.1205 72.0563 76.5884 76.5885C72.0563 81.1206 65.9094 83.6667 59.5 83.6667H24.5C11.1667 83.6667 0.333328 72.8334 0.333328 59.5V24.5C0.333328 18.0906 2.87945 11.9438 7.41158 7.41163C11.9437 2.8795 18.0906 0.333374 24.5 0.333374ZM23.6667 8.66671C19.6884 8.66671 15.8731 10.2471 13.0601 13.0601C10.247 15.8732 8.66666 19.6885 8.66666 23.6667V60.3334C8.66666 68.625 15.375 75.3334 23.6667 75.3334H60.3333C64.3116 75.3334 68.1269 73.753 70.9399 70.94C73.753 68.1269 75.3333 64.3116 75.3333 60.3334V23.6667C75.3333 15.375 68.625 8.66671 60.3333 8.66671H23.6667ZM63.875 14.9167C65.2563 14.9167 66.5811 15.4654 67.5579 16.4422C68.5346 17.4189 69.0833 18.7437 69.0833 20.125C69.0833 21.5064 68.5346 22.8311 67.5579 23.8079C66.5811 24.7846 65.2563 25.3334 63.875 25.3334C62.4937 25.3334 61.1689 24.7846 60.1921 23.8079C59.2154 22.8311 58.6667 21.5064 58.6667 20.125C58.6667 18.7437 59.2154 17.4189 60.1921 16.4422C61.1689 15.4654 62.4937 14.9167 63.875 14.9167ZM42 21.1667C47.5253 21.1667 52.8244 23.3616 56.7314 27.2687C60.6384 31.1757 62.8333 36.4747 62.8333 42C62.8333 47.5254 60.6384 52.8244 56.7314 56.7314C52.8244 60.6384 47.5253 62.8334 42 62.8334C36.4747 62.8334 31.1756 60.6384 27.2686 56.7314C23.3616 52.8244 21.1667 47.5254 21.1667 42C21.1667 36.4747 23.3616 31.1757 27.2686 27.2687C31.1756 23.3616 36.4747 21.1667 42 21.1667ZM42 29.5C38.6848 29.5 35.5054 30.817 33.1612 33.1612C30.817 35.5054 29.5 38.6848 29.5 42C29.5 45.3153 30.817 48.4947 33.1612 50.8389C35.5054 53.1831 38.6848 54.5 42 54.5C45.3152 54.5 48.4946 53.1831 50.8388 50.8389C53.183 48.4947 54.5 45.3153 54.5 42C54.5 38.6848 53.183 35.5054 50.8388 33.1612C48.4946 30.817 45.3152 29.5 42 29.5Z" fill="white"/>
</svg>
