<svg width="232" height="88" viewBox="0 0 232 88" fill="none" xmlns="http://www.w3.org/2000/svg">
<path d="M88.7978 27.7736V24.6042H103.73V27.7736H98.1639V42.786H94.3642V27.7736H88.7978ZM109.9 34.9025V42.786H106.118V24.6042H109.794V31.5555H109.954C110.261 30.7506 110.759 30.1203 111.445 29.6646C112.132 29.2029 112.993 28.9721 114.029 28.9721C114.976 28.9721 115.801 29.1792 116.506 29.5935C117.216 30.0019 117.766 30.5908 118.157 31.3602C118.553 32.1237 118.749 33.0381 118.743 34.1035V42.786H114.961V34.7782C114.967 33.9378 114.754 33.2838 114.322 32.8162C113.895 32.3486 113.298 32.1148 112.528 32.1148C112.013 32.1148 111.558 32.2243 111.161 32.4433C110.77 32.6623 110.463 32.9819 110.238 33.4021C110.019 33.8164 109.906 34.3166 109.9 34.9025ZM127.934 43.0523C126.531 43.0523 125.323 42.7683 124.311 42.2001C123.305 41.626 122.53 40.8151 121.985 39.7675C121.441 38.714 121.169 37.4682 121.169 36.03C121.169 34.6273 121.441 33.3962 121.985 32.3368C122.53 31.2774 123.296 30.4517 124.285 29.8599C125.279 29.268 126.445 28.9721 127.783 28.9721C128.682 28.9721 129.52 29.1171 130.295 29.4071C131.076 29.6912 131.757 30.1203 132.337 30.6944C132.923 31.2685 133.379 31.9906 133.704 32.8606C134.03 33.7247 134.192 34.7368 134.192 35.8968V36.9355H122.678V34.5918H130.632C130.632 34.0473 130.514 33.5649 130.277 33.1447C130.041 32.7245 129.712 32.396 129.292 32.1592C128.878 31.9166 128.395 31.7952 127.845 31.7952C127.271 31.7952 126.762 31.9284 126.318 32.1947C125.88 32.4552 125.537 32.8073 125.288 33.2512C125.039 33.6892 124.912 34.1775 124.906 34.7161V36.9444C124.906 37.6191 125.031 38.2021 125.279 38.6933C125.534 39.1846 125.892 39.5634 126.353 39.8297C126.815 40.096 127.362 40.2292 127.996 40.2292C128.416 40.2292 128.801 40.17 129.15 40.0516C129.499 39.9333 129.798 39.7557 130.046 39.519C130.295 39.2822 130.484 38.9922 130.615 38.6489L134.113 38.8798C133.935 39.7202 133.571 40.4541 133.021 41.0815C132.476 41.7029 131.772 42.1882 130.908 42.5374C130.049 42.8807 129.058 43.0523 127.934 43.0523ZM148.963 42.786H142.518V24.6042H149.016C150.845 24.6042 152.419 24.9682 153.739 25.6962C155.059 26.4182 156.074 27.4569 156.784 28.8123C157.5 30.1676 157.859 31.7893 157.859 33.6773C157.859 35.5713 157.5 37.1989 156.784 38.5602C156.074 39.9214 155.053 40.9661 153.721 41.694C152.396 42.422 150.81 42.786 148.963 42.786ZM146.362 39.4923H148.803C149.94 39.4923 150.895 39.2911 151.671 38.8886C152.452 38.4803 153.038 37.8499 153.429 36.9977C153.825 36.1395 154.023 35.0327 154.023 33.6773C154.023 32.3338 153.825 31.2359 153.429 30.3837C153.038 29.5314 152.455 28.904 151.68 28.5016C150.904 28.0991 149.948 27.8979 148.812 27.8979H146.362V39.4923ZM166.85 43.0523C165.447 43.0523 164.239 42.7683 163.227 42.2001C162.221 41.626 161.446 40.8151 160.901 39.7675C160.357 38.714 160.085 37.4682 160.085 36.03C160.085 34.6273 160.357 33.3962 160.901 32.3368C161.446 31.2774 162.212 30.4517 163.201 29.8599C164.195 29.268 165.361 28.9721 166.699 28.9721C167.598 28.9721 168.436 29.1171 169.211 29.4071C169.992 29.6912 170.673 30.1203 171.253 30.6944C171.839 31.2685 172.295 31.9906 172.62 32.8606C172.946 33.7247 173.108 34.7368 173.108 35.8968V36.9355H161.594V34.5918H169.548C169.548 34.0473 169.43 33.5649 169.193 33.1447C168.957 32.7245 168.628 32.396 168.208 32.1592C167.794 31.9166 167.311 31.7952 166.761 31.7952C166.187 31.7952 165.678 31.9284 165.234 32.1947C164.796 32.4552 164.453 32.8073 164.204 33.2512C163.955 33.6892 163.828 34.1775 163.822 34.7161V36.9444C163.822 37.6191 163.947 38.2021 164.195 38.6933C164.45 39.1846 164.808 39.5634 165.269 39.8297C165.731 40.096 166.278 40.2292 166.912 40.2292C167.332 40.2292 167.717 40.17 168.066 40.0516C168.415 39.9333 168.714 39.7557 168.963 39.519C169.211 39.2822 169.4 38.9922 169.531 38.6489L173.029 38.8798C172.851 39.7202 172.487 40.4541 171.937 41.0815C171.392 41.7029 170.688 42.1882 169.824 42.5374C168.965 42.8807 167.974 43.0523 166.85 43.0523ZM186.922 33.0381L183.46 33.2512C183.401 32.9553 183.274 32.6889 183.078 32.4522C182.883 32.2095 182.625 32.0172 182.306 31.8751C181.992 31.7272 181.616 31.6532 181.178 31.6532C180.592 31.6532 180.098 31.7775 179.696 32.0261C179.293 32.2687 179.092 32.5942 179.092 33.0026C179.092 33.3282 179.222 33.6034 179.483 33.8283C179.743 34.0532 180.19 34.2337 180.823 34.3698L183.291 34.867C184.617 35.1392 185.605 35.5772 186.257 36.1809C186.908 36.7846 187.233 37.5777 187.233 38.5602C187.233 39.4539 186.97 40.2381 186.443 40.9128C185.922 41.5875 185.206 42.1143 184.295 42.493C183.389 42.8659 182.344 43.0523 181.161 43.0523C179.355 43.0523 177.917 42.6765 176.846 41.9249C175.781 41.1673 175.156 40.1375 174.973 38.8354L178.693 38.6401C178.805 39.1905 179.077 39.6107 179.509 39.9007C179.941 40.1848 180.495 40.3268 181.17 40.3268C181.832 40.3268 182.365 40.1996 182.768 39.9451C183.176 39.6847 183.383 39.3503 183.389 38.9419C183.383 38.5986 183.238 38.3175 182.954 38.0985C182.67 37.8736 182.232 37.702 181.64 37.5836L179.279 37.1131C177.947 36.8467 176.956 36.3851 176.304 35.7281C175.659 35.0712 175.337 34.2337 175.337 33.2157C175.337 32.3398 175.574 31.5851 176.047 30.9518C176.526 30.3186 177.198 29.8303 178.062 29.487C178.932 29.1437 179.95 28.9721 181.116 28.9721C182.839 28.9721 184.194 29.3361 185.182 30.0641C186.177 30.792 186.757 31.7834 186.922 33.0381ZM189.615 42.786V29.1496H193.397V42.786H189.615ZM191.514 27.3918C190.952 27.3918 190.47 27.2054 190.067 26.8325C189.671 26.4537 189.473 26.001 189.473 25.4742C189.473 24.9534 189.671 24.5065 190.067 24.1337C190.47 23.7549 190.952 23.5655 191.514 23.5655C192.077 23.5655 192.556 23.7549 192.953 24.1337C193.355 24.5065 193.556 24.9534 193.556 25.4742C193.556 26.001 193.355 26.4537 192.953 26.8325C192.556 27.2054 192.077 27.3918 191.514 27.3918ZM202.57 48.1837C201.344 48.1837 200.294 48.0151 199.418 47.6777C198.548 47.3463 197.855 46.8935 197.341 46.3194C196.826 45.7453 196.491 45.1002 196.337 44.384L199.835 43.9135C199.942 44.1858 200.11 44.4402 200.341 44.677C200.572 44.9137 200.877 45.1031 201.256 45.2452C201.64 45.3931 202.108 45.4671 202.658 45.4671C203.481 45.4671 204.159 45.2659 204.691 44.8634C205.23 44.4669 205.499 43.801 205.499 42.8659V40.3712H205.339C205.174 40.75 204.925 41.1081 204.594 41.4455C204.262 41.7828 203.836 42.058 203.315 42.2711C202.794 42.4842 202.173 42.5907 201.451 42.5907C200.427 42.5907 199.495 42.354 198.654 41.8805C197.82 41.4011 197.154 40.6701 196.657 39.6876C196.166 38.6992 195.92 37.4504 195.92 35.9412C195.92 34.3965 196.172 33.1062 196.675 32.0705C197.178 31.0347 197.847 30.2594 198.681 29.7445C199.522 29.2295 200.442 28.9721 201.442 28.9721C202.206 28.9721 202.845 29.1023 203.36 29.3627C203.875 29.6172 204.289 29.9368 204.603 30.3215C204.922 30.7003 205.168 31.0732 205.339 31.4401H205.482V29.1496H209.237V42.9192C209.237 44.0792 208.953 45.0499 208.385 45.8311C207.816 46.6124 207.029 47.1983 206.023 47.5889C205.023 47.9855 203.872 48.1837 202.57 48.1837ZM202.649 39.7498C203.259 39.7498 203.774 39.5989 204.194 39.297C204.62 38.9893 204.946 38.5513 205.171 37.9831C205.402 37.409 205.517 36.7224 205.517 35.9234C205.517 35.1244 205.405 34.432 205.18 33.846C204.955 33.2542 204.629 32.7955 204.203 32.47C203.777 32.1444 203.259 31.9817 202.649 31.9817C202.028 31.9817 201.504 32.1504 201.078 32.4877C200.652 32.8192 200.329 33.2808 200.11 33.8727C199.891 34.4645 199.782 35.1481 199.782 35.9234C199.782 36.7106 199.891 37.3912 200.11 37.9653C200.335 38.5335 200.658 38.9745 201.078 39.2881C201.504 39.5959 202.028 39.7498 202.649 39.7498ZM216.028 34.9025V42.786H212.246V29.1496H215.851V31.5555H216.011C216.312 30.7625 216.819 30.1351 217.529 29.6734C218.239 29.2059 219.1 28.9721 220.112 28.9721C221.059 28.9721 221.885 29.1792 222.589 29.5935C223.293 30.0078 223.841 30.5997 224.232 31.3691C224.622 32.1326 224.817 33.0441 224.817 34.1035V42.786H221.035V34.7782C221.041 33.9437 220.828 33.2926 220.396 32.8251C219.964 32.3516 219.369 32.1148 218.612 32.1148C218.103 32.1148 217.653 32.2243 217.262 32.4433C216.878 32.6623 216.576 32.9819 216.357 33.4021C216.144 33.8164 216.034 34.3166 216.028 34.9025Z" fill="white"/>
<path d="M100.933 65.7684C97.9361 65.7684 95.7321 65.0047 94.3208 63.4774C92.9288 61.95 92.2328 59.9394 92.2328 57.4454C92.2328 54.932 92.6581 52.6507 93.5088 50.6014C94.3788 48.5327 95.6645 46.841 97.3658 45.5264C99.0671 44.1924 100.904 43.5254 102.876 43.5254C104.867 43.5254 106.423 44.0087 107.545 44.9754C108.685 45.9227 109.256 47.2084 109.256 48.8324C109.256 50.437 108.753 51.771 107.748 52.8344C106.762 53.8977 105.602 54.4294 104.268 54.4294C102.934 54.4294 101.899 54.1394 101.165 53.5594C100.43 52.96 100.063 52.3317 100.063 51.6744C100.063 50.9977 100.324 50.4757 100.846 50.1084C101.387 49.7217 102.17 49.5284 103.195 49.5284C102.943 49.7797 102.818 50.118 102.818 50.5434C102.818 50.9494 102.943 51.307 103.195 51.6164C103.446 51.9257 103.833 52.0804 104.355 52.0804C104.877 52.0804 105.399 51.8097 105.921 51.2684C106.443 50.7077 106.704 49.973 106.704 49.0644C106.704 48.1557 106.423 47.4307 105.863 46.8894C105.321 46.348 104.548 46.0774 103.543 46.0774C102.228 46.0774 101.029 46.609 99.9468 47.6724C98.8835 48.7357 98.0715 50.089 97.5108 51.7324C96.9501 53.3757 96.6698 55.106 96.6698 56.9234C96.6698 58.4894 97.0081 59.8717 97.6848 61.0704C98.0328 61.689 98.5451 62.182 99.2218 62.5494C99.9178 62.9167 100.73 63.1004 101.658 63.1004C103.243 63.1004 104.77 62.5977 106.24 61.5924C107.709 60.5677 108.946 59.253 109.952 57.6484L110.938 59.4174C109.797 61.2734 108.366 62.8007 106.646 63.9994C104.925 65.1787 103.021 65.7684 100.933 65.7684ZM116.598 51.6454C118.377 51.6454 119.856 52.2157 121.035 53.3564C122.234 54.497 122.833 55.889 122.833 57.5324C122.833 60.0264 122.099 62.0274 120.629 63.5354C119.179 65.024 117.42 65.7684 115.351 65.7684C113.283 65.7684 111.639 65.1787 110.421 63.9994C109.223 62.82 108.623 61.3604 108.623 59.6204C108.623 57.1844 109.368 55.251 110.856 53.8204C112.364 52.3704 114.278 51.6454 116.598 51.6454ZM116.018 53.9944C115.11 53.9944 114.346 54.5164 113.727 55.5604C113.109 56.6044 112.77 57.919 112.712 59.5044C112.712 60.6257 112.935 61.5537 113.379 62.2884C113.843 63.023 114.539 63.3904 115.467 63.3904C116.395 63.3904 117.169 62.878 117.787 61.8534C118.425 60.8287 118.744 59.659 118.744 58.3444C118.744 57.0297 118.522 55.9857 118.077 55.2124C117.633 54.4004 116.946 53.9944 116.018 53.9944ZM132.245 65.5944L133.347 55.9664C133.347 55.425 133.212 54.9804 132.941 54.6324C132.69 54.265 132.235 54.0814 131.578 54.0814C130.921 54.0814 130.379 54.4004 129.954 55.0384C129.529 55.657 129.258 56.3144 129.142 57.0104C128.465 61.8244 128.088 64.6857 128.011 65.5944H124.125L125.72 51.9644C126.532 51.7517 127.151 51.6454 127.576 51.6454C128.794 51.6454 129.461 52.0514 129.577 52.8634C130.524 52.0514 131.559 51.6454 132.68 51.6454C134.923 51.6454 136.353 52.3124 136.972 53.6464C137.919 52.293 139.273 51.6164 141.032 51.6164C142.327 51.6164 143.352 51.9547 144.106 52.6314C144.86 53.2887 145.237 54.12 145.237 55.1254C145.237 55.4154 145.179 55.9277 145.063 56.6624C144.618 59.5624 144.396 61.2637 144.396 61.7664C144.396 62.675 144.696 63.1294 145.295 63.1294C145.798 63.1294 146.329 62.8007 146.89 62.1434C147.47 61.4667 147.934 60.4324 148.282 59.0404C148.939 59.7364 149.336 60.2874 149.471 60.6934C148.466 64.0574 146.687 65.7394 144.135 65.7394C142.936 65.7394 142.047 65.372 141.467 64.6374C140.887 63.9027 140.597 63.1294 140.597 62.3174L141.293 55.9084C141.293 55.3864 141.158 54.9514 140.887 54.6034C140.616 54.2554 140.181 54.0814 139.582 54.0814C139.002 54.0814 138.49 54.3037 138.045 54.7484C137.6 55.193 137.291 55.7634 137.117 56.4594C136.537 61.37 136.16 64.415 135.986 65.5944H132.245ZM150.564 51.6164C151.821 51.6164 152.556 51.9354 152.768 52.5734C153.677 51.9354 154.827 51.6164 156.219 51.6164C157.611 51.6164 158.81 52.1867 159.815 53.3274C160.821 54.468 161.323 55.802 161.323 57.3294C161.323 57.542 161.314 57.7644 161.294 57.9964C161.082 60.529 160.231 62.4624 158.742 63.7964C157.254 65.111 155.311 65.7684 152.913 65.7684C152.372 65.7684 151.782 65.7007 151.144 65.5654L150.216 73.5404H146.417C147.655 62.8877 148.486 55.657 148.911 51.8484C149.317 51.6937 149.868 51.6164 150.564 51.6164ZM157.234 57.5324C157.234 56.6817 157.041 55.9277 156.654 55.2704C156.268 54.613 155.668 54.2844 154.856 54.2844C153.754 54.2844 152.913 54.9997 152.333 56.4304C151.947 59.2917 151.724 60.9544 151.666 61.4184C151.647 61.9984 151.831 62.4334 152.217 62.7234C152.604 63.0134 153.078 63.1584 153.638 63.1584C154.624 63.1584 155.436 62.7137 156.074 61.8244C156.848 60.7224 157.234 59.2917 157.234 57.5324ZM175.629 65.7394C173.85 65.7394 172.671 65.1207 172.091 63.8834C171.086 65.14 169.79 65.7684 168.205 65.7684C166.639 65.7684 165.315 65.2367 164.232 64.1734C163.169 63.11 162.637 61.7084 162.637 59.9684C162.637 57.4357 163.381 55.4154 164.87 53.9074C166.359 52.3994 168.244 51.6454 170.525 51.6454C170.583 51.6454 170.641 51.6454 170.699 51.6454C171.666 51.6454 172.555 51.8097 173.367 52.1384C173.889 51.8097 174.517 51.6454 175.252 51.6454C176.006 51.6454 176.547 51.742 176.876 51.9354C176.702 53.366 176.518 54.7774 176.325 56.1694C176.132 57.542 175.996 58.5184 175.919 59.0984C175.745 60.413 175.658 61.3604 175.658 61.9404C175.658 62.7137 175.967 63.1004 176.586 63.1004C177.069 63.1004 177.582 62.7814 178.123 62.1434C178.664 61.486 179.138 60.4614 179.544 59.0694C180.105 59.572 180.491 60.1327 180.704 60.7514C180.143 62.588 179.389 63.8834 178.442 64.6374C177.495 65.372 176.557 65.7394 175.629 65.7394ZM170.96 53.9074C169.723 53.9074 168.737 54.381 168.002 55.3284C167.287 56.2564 166.861 57.6484 166.726 59.5044C166.707 59.6784 166.697 59.8427 166.697 59.9974C166.697 60.9447 166.919 61.6987 167.364 62.2594C167.828 62.82 168.418 63.1004 169.133 63.1004C170.351 63.1004 171.269 62.24 171.888 60.5194L172.584 54.2554C172.023 54.0234 171.482 53.9074 170.96 53.9074ZM186.877 62.3464L187.573 55.8794C187.573 55.3574 187.437 54.9224 187.167 54.5744C186.896 54.2264 186.442 54.0524 185.804 54.0524C185.185 54.0524 184.653 54.3327 184.209 54.8934C183.783 55.4347 183.513 56.121 183.397 56.9524C182.701 62.2497 182.333 65.1304 182.295 65.5944H178.38L179.975 51.9354C180.787 51.7227 181.405 51.6164 181.831 51.6164C183.126 51.6164 183.803 52.09 183.861 53.0374C184.808 52.1094 185.939 51.6454 187.254 51.6454C188.588 51.6454 189.632 51.974 190.386 52.6314C191.14 53.2887 191.517 54.12 191.517 55.1254C191.517 55.396 191.459 55.9084 191.343 56.6624C190.898 59.601 190.676 61.312 190.676 61.7954C190.676 62.6847 190.975 63.1294 191.575 63.1294C192.889 63.1294 193.885 61.7567 194.562 59.0114C195.219 59.7074 195.615 60.2584 195.751 60.6644C194.726 64.067 192.947 65.7684 190.415 65.7684C189.216 65.7684 188.327 65.401 187.747 64.6664C187.167 63.9317 186.877 63.1584 186.877 62.3464ZM198.638 74.2074C197.536 74.2074 196.589 73.869 195.796 73.1924C195.003 72.535 194.607 71.5684 194.607 70.2924C194.607 68.7264 195.4 67.199 196.985 65.7104C195.864 65.6137 194.965 65.2464 194.288 64.6084C193.611 63.9704 193.273 63.0714 193.273 61.9114C193.273 61.37 193.341 60.558 193.476 59.4754C193.611 58.3927 193.756 57.223 193.911 55.9664C194.066 54.7097 194.23 53.3757 194.404 51.9644C195.003 51.7517 195.554 51.6454 196.057 51.6454C196.56 51.6454 196.937 51.6647 197.188 51.7034C197.439 51.742 197.681 51.887 197.913 52.1384C198.145 52.3897 198.261 52.7474 198.261 53.2114L197.304 60.6064C197.265 60.9157 197.246 61.1284 197.246 61.2444C197.246 62.385 197.768 62.9554 198.812 62.9554C199.759 62.9554 200.533 62.5107 201.132 61.6214C201.19 61.1767 201.335 59.9007 201.567 57.7934C201.799 55.6667 201.992 54.0137 202.147 52.8344C202.321 52.467 202.679 52.177 203.22 51.9644C203.781 51.7517 204.235 51.6454 204.583 51.6454C205.202 51.6454 205.762 51.7227 206.265 51.8774L204.902 62.5784C207.164 62.9844 208.517 64.5407 208.962 67.2474C208.885 67.6147 208.517 68.1947 207.86 68.9874C207.473 66.5707 206.41 65.1014 204.67 64.5794L204.206 68.2044C203.993 69.9444 203.442 71.375 202.553 72.4964C201.664 73.637 200.359 74.2074 198.638 74.2074ZM196.869 69.7414C196.869 70.3794 197.024 70.853 197.333 71.1624C197.642 71.4717 198.048 71.6264 198.551 71.6264C199.073 71.6264 199.469 71.4137 199.74 70.9884C200.011 70.563 200.223 69.7124 200.378 68.4364L200.755 65.2464C198.222 66.561 196.927 68.0594 196.869 69.7414Z" fill="white"/>
<path d="M44.6237 15.8782C44.4747 15.9262 43.953 15.9879 43.4686 16.0085C42.9842 16.0359 42.4626 16.0976 42.3061 16.1524C42.157 16.2073 41.859 16.2484 41.6503 16.2484C41.4491 16.2484 41.1584 16.2964 41.002 16.3581C40.8529 16.413 40.525 16.4884 40.2791 16.5158C40.0332 16.5501 39.7351 16.6118 39.6084 16.6461C39.1389 16.8038 38.6247 16.9477 38.3192 17.0026C38.1403 17.0369 37.9242 17.1123 37.8348 17.174C37.7453 17.2288 37.5888 17.2768 37.4845 17.2768C37.3802 17.2768 37.2162 17.3248 37.1194 17.3934C37.0225 17.4551 36.8213 17.5305 36.6722 17.5579C36.2847 17.6333 35.6587 17.8459 35.0998 18.0927C34.8315 18.2092 34.5782 18.3052 34.5335 18.3052C34.4887 18.3052 34.4068 18.3532 34.3546 18.408C34.3024 18.4629 34.2056 18.5109 34.131 18.5109C34.0118 18.5109 33.7584 18.6343 33.0281 19.0388C32.8716 19.121 32.7002 19.2102 32.6406 19.2376C32.581 19.265 32.3425 19.4021 32.1189 19.5393C31.642 19.8341 31.1651 20.1151 30.1814 20.6705C28.9667 21.3629 28.296 21.884 26.3808 23.6528C24.9127 24.9965 24.2569 25.7027 23.1465 27.1424C19.5993 31.7222 18.4367 34.3343 17.5723 39.6613C17.4381 40.4908 17.4158 40.957 17.4158 43.1578C17.4083 45.7493 17.4828 46.7023 17.7809 47.9912C17.8331 48.238 17.9151 48.6905 17.9523 49.0058C17.997 49.3144 18.0567 49.6229 18.0939 49.6914C18.1312 49.7531 18.1834 49.9862 18.2132 50.2056C18.2355 50.425 18.31 50.6992 18.3697 50.8021C18.4293 50.9118 18.4814 51.0832 18.4814 51.1792C18.4814 51.282 18.5262 51.4603 18.5858 51.5768C18.6454 51.7002 18.7348 51.9265 18.7795 52.0841C18.8242 52.2418 18.8913 52.3927 18.9286 52.4132C18.9733 52.4338 19.0031 52.5298 19.0031 52.6258C19.0031 52.7972 19.2043 53.3182 19.4204 53.7021C19.48 53.8118 19.5247 53.9284 19.5247 53.9627C19.5247 53.9969 19.6589 54.278 19.8154 54.5934C19.9719 54.9019 20.1805 55.3064 20.27 55.4984C20.3594 55.6835 20.4637 55.8892 20.501 55.944C20.5382 55.9988 20.5904 56.0948 20.6128 56.1497C20.6947 56.3485 20.7916 56.5268 20.9258 56.705C20.9928 56.8078 21.1642 57.0547 21.2984 57.2535C21.4325 57.4592 21.6933 57.8362 21.8722 58.1036C22.0585 58.3641 22.2299 58.6315 22.2522 58.6864C22.2821 58.7412 22.364 58.8509 22.4311 58.9263C22.5056 59.0017 22.6547 59.1868 22.7664 59.3377C23.1242 59.8381 25.017 61.7989 25.5312 62.2034C25.8069 62.4297 26.5074 63.0193 27.0813 63.5198C28.1767 64.4727 29.2797 65.3091 30.2783 65.933C30.5987 66.1318 30.8744 66.2964 30.8893 66.2964C30.9042 66.2964 31.0756 66.3992 31.2694 66.5158C31.6569 66.7626 32.35 67.1397 32.6406 67.2631C32.7449 67.3111 33.3411 67.5716 33.9671 67.8527C34.5931 68.1269 35.1445 68.3532 35.1818 68.3532C35.2265 68.3532 35.3532 68.3943 35.4575 68.4491C35.5693 68.504 35.845 68.6137 36.0686 68.6891C36.2922 68.7645 36.784 68.929 37.1492 69.0593C37.5218 69.1896 38.0732 69.361 38.3788 69.4432C38.6843 69.5255 39.0867 69.6352 39.273 69.6901C39.4593 69.7449 39.7798 69.8203 39.981 69.8546C40.1897 69.8889 40.5027 69.9574 40.689 69.9986C41.6577 70.2248 41.777 70.2385 43.5581 70.4442C45.9577 70.7116 49.6316 70.7184 51.4201 70.4511C51.7704 70.3962 52.3293 70.3345 52.6646 70.3139C53.0074 70.2865 53.3726 70.2385 53.4844 70.1974C53.6036 70.1494 53.9091 70.0945 54.1774 70.0671C55.1313 69.9711 58.0377 69.1827 59.1331 68.7302C59.2598 68.6754 59.5653 68.552 59.8262 68.456C60.2659 68.2914 60.862 68.0446 61.8532 67.6127C62.2928 67.4208 64.0292 66.5089 64.0888 66.4335C64.1112 66.4061 64.2081 66.3444 64.3124 66.2964C64.8788 66.029 66.5331 64.8978 67.5317 64.0956C68.2471 63.5198 70.7213 61.2367 71.161 60.7431C71.3845 60.4963 71.705 60.1398 71.8838 59.9547C72.0552 59.7627 72.3235 59.4542 72.4651 59.2691C72.8079 58.8303 73.2699 58.2133 73.3668 58.0762C73.4115 58.0145 73.6649 57.658 73.9332 57.2809C74.2014 56.9038 74.5741 56.3005 74.7678 55.944C75.0883 55.3544 75.2448 55.0802 75.4311 54.7785C75.4609 54.7237 75.5279 54.6002 75.5652 54.5043C75.6099 54.4083 75.6919 54.2506 75.7515 54.1478C75.8111 54.0518 75.8633 53.9284 75.8633 53.8735C75.8707 53.8255 75.9304 53.661 76.0123 53.5102C76.0943 53.3593 76.1539 53.2016 76.1614 53.1674C76.1614 53.1262 76.2284 52.9754 76.3104 52.8246C76.3924 52.6737 76.4595 52.4886 76.4595 52.4132C76.4595 52.331 76.4893 52.2418 76.5265 52.2007C76.5936 52.139 76.7501 51.7208 77.227 50.3222C77.5028 49.5063 77.6071 49.1018 77.7338 48.334C77.7785 48.0872 77.853 47.6689 77.9126 47.4084C78.0542 46.7571 78.2107 44.3164 78.2033 42.8493C78.2033 41.5261 78.0095 38.9346 77.8977 38.6672C77.853 38.5712 77.8009 38.2627 77.771 37.9816C77.7412 37.7005 77.6667 37.3646 77.6071 37.2343C77.5475 37.1109 77.5028 36.9395 77.5028 36.8641C77.5028 36.7887 77.4357 36.5213 77.3463 36.2745C77.2643 36.0277 77.1376 35.6506 77.078 35.4449C76.9215 34.9444 76.6532 34.2177 76.4222 33.6281C76.3104 33.3607 76.1986 33.0522 76.1688 32.9425C76.1316 32.826 76.0496 32.6408 75.9825 32.5312C75.9154 32.4146 75.8633 32.2912 75.8633 32.2432C75.8633 32.1678 75.6695 31.7633 75.4907 31.4685C75.4609 31.4136 75.2671 31.0709 75.0733 30.7143C74.8721 30.3578 74.4995 29.7614 74.2387 29.3843C73.9779 29.0141 73.732 28.6439 73.6947 28.5616C73.65 28.4862 73.5382 28.2942 73.4413 28.1434C73.337 27.9926 73.1954 27.7457 73.1134 27.5949C73.0315 27.4441 72.8973 27.2453 72.8153 27.1493C72.7334 27.0533 72.5545 26.8408 72.4129 26.6694C72.1223 26.306 71.8242 26.1963 71.3994 26.3197C71.1684 26.3814 70.7436 26.7379 69.3501 28.0268C68.3813 28.9181 67.4796 29.7957 67.338 29.9808C67.1964 30.159 66.9579 30.399 66.8014 30.5155C66.2649 30.8995 65.8401 31.4891 65.9295 31.7222C65.9966 31.9004 66.6226 32.8465 66.7865 33.0179C66.861 33.0933 66.9207 33.1825 66.9207 33.2167C66.9207 33.2442 67.0324 33.4293 67.1666 33.6212C67.3007 33.8132 67.5615 34.2794 67.7329 34.6565C67.9118 35.0336 68.1726 35.5477 68.3068 35.8083C68.4484 36.0619 68.5601 36.3225 68.5601 36.391C68.5601 36.4596 68.6123 36.5761 68.6719 36.6515C68.7315 36.7338 68.8135 36.9189 68.8508 37.0629C68.888 37.2137 68.9551 37.4194 68.9998 37.536C69.2308 38.1598 69.3277 38.4752 69.3948 38.9071C69.4395 39.1677 69.5215 39.4487 69.5736 39.5242C69.6333 39.5996 69.678 39.819 69.678 40.0109C69.678 40.2029 69.7376 40.4977 69.8047 40.6622C69.909 40.9159 69.9388 41.293 69.9611 43.1029C69.9835 45.0569 69.9761 45.29 69.8419 45.811C69.7599 46.1264 69.6705 46.5514 69.6556 46.7708C69.6183 47.1342 69.5662 47.3193 69.2159 48.4368C68.7315 49.9588 67.9118 51.7002 66.8461 53.4416C66.0711 54.7168 64.5881 56.3074 63.3063 57.2466C63.0753 57.418 62.7251 57.6785 62.5388 57.8294C61.8681 58.3641 60.8024 59.0977 60.6906 59.0977C60.6683 59.0977 60.4745 59.2005 60.2659 59.324C59.5057 59.7627 59.0139 59.9958 58.1643 60.3249C57.7545 60.4895 57.3371 60.654 57.2328 60.6951C56.5249 60.9694 55.7722 61.1819 54.9375 61.3327C54.6395 61.3807 54.3339 61.4561 54.2594 61.4904C54.1849 61.5315 53.8346 61.5933 53.4918 61.6275C53.149 61.6618 52.7839 61.7098 52.6795 61.7372C52.4038 61.7989 52.2473 61.5933 52.1504 61.0448C52.0684 60.5512 52.0983 57.2809 52.2324 51.6248C52.3665 46.2841 52.3144 35.3626 52.1206 27.019C52.0983 26.0661 52.0983 25.1816 52.1206 25.0582C52.1877 24.7566 52.4262 24.6675 53.0447 24.7223C53.3204 24.7429 53.693 24.8046 53.8793 24.8526C54.0656 24.9074 54.401 24.9691 54.6245 24.9897C54.8481 25.0171 55.1015 25.072 55.1835 25.1131C55.2654 25.1542 55.4517 25.2091 55.5933 25.2365C55.9063 25.2982 56.4801 25.4833 56.9049 25.6547C57.0689 25.7233 57.2775 25.7781 57.3595 25.7781C57.4415 25.7781 57.5533 25.8261 57.6054 25.8809C57.6576 25.9358 57.7545 25.9838 57.829 25.9838C58.142 25.9838 60.4745 27.163 60.5714 27.3687C60.6087 27.4372 61.8457 28.0817 62.0544 28.1365C62.1438 28.164 62.3003 28.1502 62.3897 28.1023C62.4866 28.0611 63.0679 27.5675 63.679 27.019C64.2975 26.4637 64.9831 25.8741 65.2067 25.7027C65.4302 25.5382 65.7209 25.3051 65.8475 25.1954C67.7329 23.4951 67.8894 23.3443 67.9342 23.1317C67.9565 23.0083 67.9565 22.8438 67.9267 22.7684C67.8596 22.5764 67.107 21.8908 66.4065 21.3903C66.0935 21.1641 65.7358 20.9104 65.6091 20.8144C65.4898 20.7185 65.1694 20.5402 64.9011 20.4168C64.6403 20.2934 64.3198 20.122 64.2006 20.0466C64.0069 19.9232 63.4703 19.6421 62.807 19.3267C62.7102 19.2787 62.5835 19.217 62.5239 19.1896C61.2644 18.5589 60.5416 18.2366 60.4074 18.2366C60.3553 18.2366 60.2659 18.1886 60.2137 18.1338C60.1615 18.079 60.0572 18.031 59.9752 18.031C59.9007 18.031 59.7293 17.983 59.5952 17.9144C59.461 17.8527 59.2598 17.7773 59.1331 17.7499C58.7754 17.6676 58.2538 17.4893 58.0377 17.3797C57.9333 17.3248 57.7843 17.2768 57.7023 17.2768C57.6278 17.2768 57.4713 17.2288 57.352 17.174C57.2328 17.1191 57.0018 17.0506 56.8304 17.03C56.6664 17.0026 56.4429 16.9477 56.3386 16.8997C56.2342 16.8517 56.0032 16.79 55.8169 16.7626C55.6306 16.7352 55.3325 16.6735 55.1462 16.6255C54.7885 16.5227 54.2817 16.4267 53.544 16.3033C53.2981 16.2621 52.9329 16.1936 52.7242 16.1387C52.523 16.0907 51.9865 16.0359 51.5319 16.0085C51.0848 15.9879 50.5482 15.9262 50.347 15.8714C49.8402 15.7274 45.0485 15.7342 44.6237 15.8782ZM43.0588 24.7634C43.1854 24.88 43.1854 61.4356 43.0588 61.5521C42.7756 61.8126 40.0779 61.4356 38.9377 60.9762C38.8185 60.9282 38.498 60.8048 38.2297 60.7088C37.5665 60.462 36.1357 59.845 35.7333 59.6256C35.1669 59.3171 33.8628 58.4875 33.4603 58.1722C33.1921 57.9665 32.6779 57.5688 32.3052 57.2878C31.5377 56.7119 30.0994 55.3681 29.7715 54.9156C29.6523 54.7442 29.3691 54.3809 29.153 54.0998C28.676 53.4965 27.752 52.0567 27.6774 51.803C27.6551 51.7071 27.588 51.5974 27.5284 51.5494C27.4688 51.5082 27.4241 51.4054 27.4241 51.3231C27.4241 51.2409 27.3794 51.1175 27.3272 51.042C27.1185 50.7472 26.5149 49.3692 26.336 48.7796C26.2764 48.5876 26.2019 48.3751 26.1646 48.2997C26.1199 48.2243 26.0603 48.0255 26.0231 47.8541C25.9783 47.6827 25.9113 47.4496 25.874 47.3399C25.6728 46.7983 25.5387 45.9824 25.4418 44.6318C25.2704 42.3625 25.4492 39.9081 25.8964 38.4272C25.9485 38.2353 26.0156 37.9747 26.0454 37.8445C26.0752 37.7142 26.1796 37.3851 26.2839 37.1246C26.3882 36.8572 26.5224 36.5281 26.5745 36.3842C26.6341 36.247 26.7087 36.0756 26.7459 36.0071C26.7906 35.9454 26.8875 35.7534 26.9695 35.582C27.7594 33.9435 27.9308 33.6418 28.5121 32.8328C29.1157 31.9895 29.7268 31.3245 31.0309 30.0973C32.1115 29.0826 33.1921 28.1914 33.8926 27.7457C34.3993 27.4167 34.9582 27.067 35.1371 26.9642C35.3905 26.8202 37.261 25.9838 37.3355 25.9838C37.3653 25.9838 37.492 25.9358 37.6112 25.8878C37.8348 25.7781 38.4533 25.5861 38.7514 25.5244C38.8557 25.5107 39.1091 25.4353 39.3103 25.3668C40.0108 25.1268 40.689 24.9554 40.92 24.9554C41.0467 24.9554 41.2181 24.9211 41.3 24.88C41.6056 24.7292 42.9246 24.64 43.0588 24.7634Z" fill="white"/>
</svg>
