<svg width="100" height="68" viewBox="0 0 100 68" fill="none" xmlns="http://www.w3.org/2000/svg">
<path fill-rule="evenodd" clip-rule="evenodd" d="M51.3563 14.7688C57.1562 6.92505 63.5687 0.75005 71.7687 0.75005C87.25 0.75005 100 20.4563 100.006 43.9188C100.006 58.2313 93.8438 67.2001 82.775 67.2001C73.1313 67.2001 67.8062 61.7876 58.25 45.8001L54.0812 38.7813L53.3437 37.5501C52.2566 35.7127 51.1524 33.8856 50.0313 32.0688L42.6688 45.0688C32.2125 63.3501 26.325 67.2001 18.15 67.2001C6.7875 67.2001 0 58.3563 0 44.3313C0 21.925 12.4688 0.75005 28.7375 0.75005C30.725 0.745884 32.65 1.00005 34.5125 1.51255C36.45 2.05005 38.3312 2.88755 40.2187 4.0563C43.825 6.30005 47.4312 9.77505 51.3563 14.7688ZM60.8312 28.6688C59.2562 26.1105 57.7417 23.7501 56.2875 21.5876L56.25 21.5376C61.5313 13.3813 65.8937 9.32505 71.075 9.32505C81.8437 9.32505 90.4625 25.1813 90.4625 44.6563C90.4625 52.0813 88.025 56.3876 82.9938 56.3876C78.1625 56.3876 75.8562 53.2001 66.6812 38.4501L60.8312 28.6688ZM30.2875 11.7251C34.8188 12.3501 38.9437 15.6876 44.9125 24.2313C41.4685 29.5049 38.0622 34.8029 34.6938 40.1251C26.2125 53.4126 23.2813 56.3938 18.5625 56.3938C13.7063 56.3938 10.8125 52.1313 10.8125 44.5188C10.8125 28.2563 18.925 11.6188 28.6 11.6188C29.1667 11.6188 29.7292 11.6501 30.2875 11.7251Z" fill="white"/>
</svg>
