<svg width="49" height="27" viewBox="0 0 49 27" fill="none" xmlns="http://www.w3.org/2000/svg">
<path d="M5.07916 17.7057C5.07916 19.2491 5.47336 20.4341 5.98842 21.1509C6.66384 22.0899 7.67101 22.4877 8.69801 22.4877C10.0226 22.4877 11.2344 22.2051 13.5694 19.4289C15.4403 17.2039 17.6447 14.0804 19.1278 12.1224L21.6398 8.805C23.3846 6.50116 25.4041 3.94011 27.7198 2.20405C29.6098 0.787105 31.6491 0 33.7013 0C37.1469 0 40.4289 1.71632 42.9408 4.93532C45.6897 8.46063 47.0242 12.9011 47.0242 17.4835C47.0242 20.2077 46.3997 22.2093 45.3366 23.7908C44.3096 25.3202 42.308 26.8481 38.941 26.8481V22.4877C41.824 22.4877 42.5435 20.2105 42.5435 17.6045C42.5435 13.8908 41.5361 9.76926 39.3172 6.82453C37.7422 4.73558 35.7015 3.45932 33.4562 3.45932C31.0279 3.45932 29.0736 5.03353 26.8774 7.8409C25.7099 9.33221 24.5112 11.1497 23.1655 13.2005L21.6838 15.4566C18.7075 19.9926 17.9537 21.0257 16.4656 22.7308C13.8573 25.7166 11.6302 26.8481 8.69801 26.8481C5.21987 26.8481 3.0202 25.5534 1.65815 23.6024C0.546105 22.0126 0 19.9266 0 17.5497L5.07916 17.7057Z" fill="#0081FB"/>
<path d="M4.00476 5.24305C6.33356 2.15779 9.69395 0 13.5483 0C15.7806 0 17.9996 0.567947 20.3168 2.19426C22.8514 3.97232 25.5529 6.90032 28.9232 11.7261L30.1318 13.4577C33.049 17.6354 34.7088 19.7845 35.6801 20.7982C36.9296 22.0997 37.8045 22.4877 38.941 22.4877C41.824 22.4877 42.5435 20.2105 42.5435 17.6045L47.0242 17.4835C47.0242 20.2077 46.3996 22.2093 45.3366 23.7908C44.3096 25.3202 42.308 26.8481 38.941 26.8481C36.8479 26.8481 34.9935 26.4573 32.9428 24.7944C31.3664 23.5181 29.5235 21.2507 28.1056 19.2125L23.8881 13.1569C21.7722 10.1179 19.831 7.85211 18.7077 6.82579C17.4994 5.72242 15.9458 4.38979 13.4667 4.38979C11.4603 4.38979 9.75622 5.60021 8.33025 7.45137L4.00476 5.24305Z" fill="url(#paint0_linear_670_19)"/>
<path d="M13.4666 4.38979C11.4601 4.38979 9.75605 5.60021 8.33008 7.45137C6.31392 10.0674 5.07916 13.9637 5.07916 17.7057C5.07916 19.2491 5.47336 20.4341 5.98842 21.1509L1.65815 23.6024C0.546105 22.0126 0 19.9266 0 17.5497C0 13.2272 1.38023 8.72211 4.00477 5.24305C6.33357 2.15779 9.69396 0 13.5483 0L13.4666 4.38979Z" fill="url(#paint1_linear_670_19)"/>
<defs>
<linearGradient id="paint0_linear_670_19" x1="601.028" y1="1501.72" x2="3832.13" y2="1691.57" gradientUnits="userSpaceOnUse">
<stop stop-color="#0064E1"/>
<stop offset="0.4" stop-color="#0064E1"/>
<stop offset="0.83" stop-color="#0073EE"/>
<stop offset="1" stop-color="#0082FB"/>
</linearGradient>
<linearGradient id="paint1_linear_670_19" x1="735.876" y1="1953.86" x2="735.876" y2="927.74" gradientUnits="userSpaceOnUse">
<stop stop-color="#0082FB"/>
<stop offset="1" stop-color="#0064E0"/>
</linearGradient>
</defs>
</svg>
